<svg xmlns="http://www.w3.org/2000/svg" xmlns:xlink="http://www.w3.org/1999/xlink" id="svg" width="400" height="400" viewBox="0, 0, 400,400 undefined"><g id="svgg"><path id="path0" d="M180.469 0.485 C 74.541 13.084,0.391 95.237,0.391 200.000 C 0.391 331.019,120.728 425.415,248.271 394.445 C 355.064 368.514,420.644 259.621,394.445 151.729 C 375.668 74.396,312.426 16.028,232.465 2.230 C 223.396 0.665,188.736 -0.498,180.469 0.485 M224.219 34.807 C 359.821 55.132,414.369 220.175,317.770 317.860 C 227.428 409.216,70.288 366.107,38.348 241.204 C 9.011 126.477,107.341 17.288,224.219 34.807 M193.359 60.406 C 161.966 68.459,165.128 112.488,197.354 116.029 C 221.866 118.722,238.504 97.000,228.566 75.279 C 223.087 63.302,207.590 56.755,193.359 60.406 M171.289 138.085 L 152.344 138.309 152.344 155.092 L 152.344 171.875 162.891 171.875 L 173.438 171.875 173.438 222.536 C 173.438 250.400,173.666 276.416,173.945 280.349 L 174.453 287.500 163.008 287.500 L 151.563 287.500 151.563 303.516 L 151.563 319.531 185.742 319.529 C 204.541 319.528,226.514 319.296,234.570 319.015 L 249.219 318.503 249.219 302.495 L 249.219 286.487 240.351 286.923 L 231.483 287.360 230.976 277.932 C 230.697 272.747,230.469 239.029,230.469 203.002 L 230.469 137.500 210.352 137.681 C 199.287 137.780,181.709 137.962,171.289 138.085 " stroke="none" fill="#afafaf" fill-rule="evenodd"/></g></svg>