<svg xmlns="http://www.w3.org/2000/svg" xmlns:xlink="http://www.w3.org/1999/xlink" id="svg" width="400" height="400" viewBox="0, 0, 400,400 undefined"><g id="svgg"><path id="path0" d="M192.460 30.303 C 192.221 30.690,190.416 30.825,188.450 30.603 C 186.483 30.382,184.228 30.497,183.437 30.860 C 182.647 31.223,179.961 31.558,177.469 31.605 C 174.977 31.651,172.413 32.125,171.771 32.658 C 171.128 33.191,170.013 33.401,169.291 33.124 C 168.570 32.847,167.444 33.065,166.790 33.608 C 166.135 34.152,165.600 34.328,165.600 34.000 C 165.600 33.672,165.076 33.839,164.435 34.371 C 163.794 34.903,162.894 35.106,162.435 34.822 C 161.976 34.538,161.150 34.586,160.600 34.930 C 160.050 35.273,159.019 35.644,158.309 35.755 C 157.599 35.866,155.979 36.386,154.709 36.911 C 153.439 37.436,152.130 37.941,151.800 38.033 C 151.470 38.125,151.110 38.272,151.000 38.359 C 150.890 38.447,149.971 38.673,148.957 38.861 C 147.944 39.049,146.058 39.750,144.766 40.418 C 143.474 41.086,142.143 41.661,141.808 41.695 C 141.474 41.730,140.480 42.160,139.600 42.651 C 138.720 43.142,137.820 43.570,137.600 43.602 C 136.601 43.749,130.532 46.929,128.013 48.625 C 126.480 49.658,124.140 51.021,122.813 51.655 C 115.430 55.182,94.271 73.909,86.261 84.008 C 82.514 88.731,72.000 104.307,72.000 105.135 C 72.000 105.410,71.073 107.036,69.939 108.748 C 68.806 110.461,67.800 112.397,67.704 113.050 C 67.608 113.704,67.052 114.815,66.467 115.519 C 65.882 116.224,65.636 116.800,65.920 116.800 C 66.205 116.800,65.860 117.681,65.154 118.758 C 64.449 119.835,63.919 120.825,63.978 120.958 C 64.037 121.091,63.525 122.540,62.841 124.178 C 62.157 125.817,61.444 127.977,61.258 128.978 C 61.071 129.980,60.847 130.890,60.759 131.000 C 60.672 131.110,60.510 131.560,60.400 132.000 C 60.290 132.440,60.110 132.980,60.000 133.200 C 59.890 133.420,59.749 133.870,59.688 134.200 C 59.626 134.530,59.290 135.250,58.941 135.800 C 58.591 136.350,58.513 137.135,58.766 137.545 C 59.019 137.954,58.854 138.519,58.400 138.800 C 57.946 139.081,57.791 139.661,58.056 140.090 C 58.321 140.519,58.106 141.390,57.579 142.025 C 57.052 142.660,56.826 143.713,57.076 144.364 C 57.326 145.016,57.208 145.748,56.814 145.991 C 56.420 146.235,56.234 147.139,56.400 148.000 C 56.566 148.861,56.335 149.793,55.886 150.070 C 55.437 150.348,55.295 151.470,55.570 152.564 C 55.845 153.662,55.649 155.059,55.132 155.682 C 53.936 157.124,53.420 183.129,54.444 190.400 C 55.578 198.458,56.477 203.600,56.752 203.600 C 56.838 203.600,57.067 204.827,57.261 206.327 C 57.455 207.826,58.015 209.536,58.505 210.127 C 58.995 210.717,59.147 211.200,58.843 211.200 C 58.540 211.200,59.061 212.281,60.001 213.601 C 61.411 215.582,62.087 215.913,63.855 215.491 C 67.916 214.522,68.504 212.918,66.602 208.000 C 66.347 207.340,66.062 206.530,65.969 206.200 C 65.876 205.870,65.727 205.510,65.638 205.400 C 65.491 205.217,65.004 201.321,64.764 198.400 C 64.710 197.740,64.471 196.660,64.233 196.000 C 63.750 194.662,63.212 188.584,63.117 183.403 C 63.083 181.534,62.728 179.803,62.328 179.555 C 61.351 178.952,61.393 169.022,62.375 168.415 C 62.801 168.152,63.113 166.061,63.067 163.768 C 63.021 161.476,63.253 158.965,63.582 158.188 C 63.911 157.411,63.994 156.062,63.765 155.189 C 63.537 154.316,63.654 153.414,64.024 153.185 C 64.395 152.956,64.726 152.146,64.759 151.384 C 64.932 147.492,65.373 144.984,66.246 142.933 C 66.777 141.686,66.998 140.320,66.737 139.898 C 66.476 139.475,66.606 138.696,67.027 138.165 C 67.720 137.290,69.461 132.523,69.953 130.152 C 70.062 129.629,70.927 127.460,71.876 125.334 C 72.824 123.207,73.600 121.157,73.600 120.777 C 73.600 119.709,79.361 108.928,82.651 103.838 C 84.273 101.330,85.600 98.990,85.601 98.638 C 85.602 97.786,94.403 87.007,99.185 82.000 C 114.396 66.077,127.317 56.888,143.600 50.415 C 146.240 49.366,149.191 48.004,150.158 47.389 C 151.125 46.774,152.115 46.300,152.358 46.336 C 152.601 46.371,152.890 46.372,153.000 46.339 C 153.110 46.305,153.740 46.169,154.400 46.036 C 155.060 45.903,158.300 44.987,161.600 44.000 C 164.900 43.013,168.140 42.097,168.800 41.964 C 169.460 41.831,170.000 41.672,170.000 41.610 C 170.000 41.548,171.260 41.331,172.800 41.128 C 176.564 40.631,178.800 40.234,178.800 40.064 C 178.800 38.633,216.891 38.888,220.801 40.344 C 221.461 40.590,223.440 40.931,225.200 41.103 C 226.960 41.275,228.980 41.656,229.688 41.950 C 230.397 42.245,232.017 42.621,233.288 42.788 C 234.560 42.954,235.690 43.160,235.800 43.245 C 235.910 43.330,236.360 43.490,236.800 43.600 C 237.240 43.710,237.780 43.890,238.000 44.000 C 238.220 44.110,238.670 44.275,239.000 44.367 C 239.330 44.459,240.606 44.951,241.835 45.461 C 243.065 45.970,245.045 46.620,246.235 46.904 C 247.426 47.188,248.905 47.821,249.523 48.310 C 250.141 48.800,250.770 49.112,250.921 49.005 C 251.546 48.560,268.091 57.191,274.292 61.197 C 288.471 70.357,306.112 88.375,312.285 100.000 C 313.103 101.540,314.555 103.880,315.513 105.200 C 316.471 106.520,318.636 110.660,320.325 114.400 C 322.013 118.140,324.251 122.903,325.297 124.985 C 326.344 127.067,327.200 129.476,327.200 130.338 C 327.200 131.200,327.566 132.132,328.013 132.408 C 328.460 132.684,328.616 133.250,328.360 133.665 C 328.103 134.081,328.451 135.540,329.134 136.907 C 329.816 138.275,330.198 139.680,329.981 140.030 C 329.765 140.380,329.991 141.686,330.484 142.933 C 330.976 144.180,331.463 146.355,331.564 147.767 C 331.666 149.179,332.198 150.874,332.746 151.534 C 333.361 152.276,333.539 153.657,333.211 155.148 C 332.920 156.475,332.968 158.020,333.319 158.580 C 333.669 159.141,333.854 161.815,333.729 164.523 C 333.598 167.377,333.860 169.666,334.352 169.970 C 335.440 170.643,335.463 177.343,334.379 178.013 C 333.925 178.294,333.625 180.903,333.708 183.860 C 333.791 186.797,333.579 189.835,333.239 190.612 C 332.898 191.389,332.825 192.810,333.076 193.770 C 333.328 194.731,333.157 195.970,332.697 196.524 C 332.237 197.079,331.776 198.897,331.672 200.566 C 331.569 202.235,331.215 204.196,330.885 204.924 C 330.556 205.653,330.209 207.274,330.113 208.526 C 330.017 209.779,329.691 211.205,329.388 211.695 C 328.686 212.831,330.985 214.922,333.672 215.592 C 336.073 216.191,338.273 213.605,338.782 209.585 C 338.945 208.298,339.247 206.965,339.453 206.622 C 339.948 205.801,341.056 198.638,341.157 195.600 C 341.202 194.280,341.449 192.840,341.706 192.400 C 342.785 190.557,343.175 165.030,342.219 158.800 C 341.949 157.040,341.552 153.980,341.336 152.000 C 340.841 147.456,337.235 133.508,335.921 131.052 C 335.376 130.034,334.975 129.020,335.030 128.800 C 335.230 128.001,334.158 124.353,333.150 122.400 C 332.582 121.300,330.243 116.457,327.952 111.637 C 317.350 89.334,292.177 60.942,275.467 52.439 C 273.780 51.581,270.911 49.911,269.092 48.729 C 265.249 46.231,254.423 40.789,252.746 40.512 C 252.116 40.408,250.846 39.908,249.924 39.400 C 249.002 38.892,247.261 38.297,246.054 38.078 C 244.848 37.860,243.390 37.290,242.815 36.812 C 242.239 36.335,241.461 36.015,241.084 36.101 C 240.708 36.188,239.380 35.838,238.133 35.323 C 236.886 34.809,235.561 34.577,235.188 34.807 C 234.815 35.038,234.269 34.836,233.974 34.359 C 233.679 33.881,232.946 33.680,232.345 33.911 C 231.743 34.141,231.019 33.954,230.735 33.495 C 230.452 33.036,229.469 32.857,228.551 33.097 C 227.634 33.337,226.383 33.118,225.772 32.611 C 225.161 32.104,222.623 31.651,220.131 31.605 C 217.639 31.558,214.955 31.224,214.166 30.862 C 213.378 30.499,210.937 30.375,208.742 30.586 C 206.548 30.797,204.562 30.662,204.329 30.285 C 203.770 29.381,193.020 29.397,192.460 30.303 M194.401 48.611 C 190.848 52.163,190.440 57.025,193.426 60.229 C 195.081 62.005,197.015 118.511,195.504 120.956 C 195.228 121.402,191.987 118.768,188.301 115.101 L 181.600 108.435 181.600 97.551 C 181.600 91.565,181.375 86.442,181.100 86.166 C 179.557 84.623,180.922 68.486,182.782 66.275 C 187.082 61.165,183.170 52.142,176.789 52.451 C 169.329 52.813,165.619 61.232,170.479 66.768 L 172.800 69.411 172.800 84.146 C 172.800 94.539,173.083 99.163,173.760 99.840 C 174.305 100.385,174.371 100.800,173.913 100.800 C 173.468 100.800,171.376 98.797,169.262 96.349 L 165.420 91.898 165.311 83.749 C 165.251 79.267,164.841 75.336,164.401 75.012 C 161.333 72.760,158.016 77.435,158.841 82.849 L 159.321 86.000 153.243 80.002 C 148.635 75.456,147.411 73.810,148.182 73.199 C 149.748 71.961,149.653 70.744,147.982 70.619 C 147.127 70.554,146.262 71.175,145.983 72.053 C 145.713 72.904,145.156 73.645,144.746 73.700 C 144.336 73.755,143.658 73.845,143.240 73.900 C 140.915 74.206,140.863 75.845,143.085 78.857 C 145.509 82.143,185.748 122.820,192.000 128.304 C 193.980 130.041,195.555 131.943,195.500 132.531 C 195.445 133.119,195.355 136.163,195.300 139.296 L 195.200 144.992 171.926 122.296 C 159.125 109.813,144.545 95.681,139.526 90.890 C 130.893 82.651,130.400 82.009,130.400 79.011 C 130.400 70.538,119.335 68.749,116.046 76.690 C 113.898 81.874,118.271 88.213,123.772 87.891 C 126.418 87.735,134.598 93.669,133.395 94.871 C 132.056 96.211,122.478 95.891,120.640 94.446 C 118.035 92.397,117.219 92.392,114.385 94.411 C 108.202 98.813,113.196 108.685,119.672 104.864 C 121.885 103.558,123.848 103.200,128.799 103.200 C 132.267 103.200,135.335 102.829,135.615 102.375 C 137.266 99.704,141.632 102.697,154.544 115.351 C 161.725 122.388,173.834 134.076,181.453 141.325 L 195.305 154.505 195.469 160.453 C 195.559 163.724,195.445 166.392,195.216 166.382 C 192.598 166.272,158.212 130.415,158.037 127.612 C 157.600 120.646,150.335 117.413,145.873 122.200 C 143.166 125.104,142.200 127.732,143.172 129.547 C 143.596 130.341,143.761 131.172,143.538 131.395 C 142.467 132.466,148.207 135.943,150.880 135.843 C 153.370 135.749,154.389 136.424,159.639 141.639 C 166.465 148.419,166.385 149.019,158.626 149.184 L 153.200 149.300 145.000 141.298 L 136.800 133.296 136.800 127.374 C 136.800 122.728,137.134 121.028,138.349 119.483 C 143.728 112.644,135.316 103.159,128.661 108.560 C 127.198 109.748,125.862 110.816,125.693 110.934 C 124.298 111.906,125.009 116.718,126.797 118.397 C 128.294 119.803,128.803 121.103,128.810 123.539 L 128.820 126.800 120.538 118.800 C 113.005 111.525,110.720 108.678,111.070 107.009 C 111.874 103.175,101.677 101.953,98.167 105.464 C 91.879 111.752,99.663 123.109,106.823 118.094 C 108.277 117.076,109.001 117.543,115.924 123.971 C 120.060 127.812,123.120 131.124,122.722 131.332 C 119.455 133.038,104.397 131.921,102.745 129.849 C 99.320 125.554,92.930 128.014,92.284 133.877 C 91.687 139.299,96.998 143.147,100.892 140.114 C 103.080 138.409,117.998 137.102,118.885 138.538 C 119.165 138.990,122.256 139.230,126.095 139.097 L 132.815 138.865 137.570 143.570 C 140.185 146.158,142.140 148.573,141.915 148.938 C 141.317 149.905,128.189 149.754,127.583 148.773 C 126.974 147.787,112.136 147.933,111.519 148.930 C 110.791 150.109,108.292 149.649,106.866 148.073 C 103.039 143.844,96.662 145.079,93.694 150.625 C 90.033 157.465,99.614 164.375,105.630 159.233 L 108.400 156.865 129.904 156.833 L 151.408 156.800 148.304 160.303 C 145.805 163.122,144.689 163.799,142.580 163.772 C 136.405 163.694,133.709 169.826,137.758 174.739 C 141.430 179.194,149.478 176.525,148.656 171.125 C 148.471 169.906,150.159 167.693,154.763 163.120 L 161.126 156.800 167.963 156.838 L 174.800 156.877 182.222 163.847 L 189.645 170.817 190.123 179.806 C 190.438 185.741,190.307 189.148,189.738 189.834 C 189.263 190.406,188.884 191.577,188.895 192.437 C 188.985 199.382,178.913 212.911,172.800 214.056 C 170.800 214.430,167.445 215.541,166.800 216.042 C 166.038 216.634,165.554 216.779,164.200 216.817 C 163.870 216.826,141.640 216.951,114.800 217.094 C 61.435 217.379,63.732 217.286,61.970 219.233 C 60.845 220.476,60.923 220.824,62.838 223.099 L 64.942 225.600 99.071 225.636 L 133.200 225.672 126.314 232.236 L 119.428 238.800 113.914 238.555 C 110.881 238.421,102.890 238.111,96.155 237.867 C 89.420 237.623,84.113 237.220,84.362 236.971 C 86.301 235.032,77.114 230.880,74.918 232.702 C 74.332 233.188,73.666 233.400,73.439 233.172 C 72.411 232.144,67.200 239.290,67.200 241.727 C 67.200 250.375,78.480 254.436,83.781 247.697 C 85.688 245.273,93.315 244.908,111.182 246.385 C 122.282 247.303,120.944 247.980,134.000 234.852 L 143.600 225.200 148.216 225.600 L 152.831 226.000 135.816 242.915 C 115.370 263.240,119.406 261.320,97.600 261.094 C 86.352 260.977,78.959 261.219,77.890 261.740 C 76.424 262.455,75.785 262.142,73.396 259.535 C 70.183 256.029,66.001 255.293,62.250 257.574 C 58.246 260.009,55.189 265.253,56.526 267.393 C 56.872 267.947,57.235 268.940,57.334 269.600 C 58.318 276.218,70.063 277.445,74.000 271.342 C 75.578 268.896,75.693 268.861,82.400 268.816 C 86.140 268.791,93.619 268.645,99.019 268.492 C 104.419 268.339,108.971 268.436,109.133 268.707 C 109.675 269.612,93.894 285.600,92.460 285.600 C 87.289 285.600,83.516 292.327,84.693 299.445 C 85.065 301.693,90.159 304.800,93.472 304.800 C 99.683 304.800,106.566 294.975,102.233 292.297 C 98.897 290.235,105.955 282.406,152.084 237.000 L 164.478 224.800 168.239 224.800 C 170.361 224.800,172.000 225.170,172.000 225.650 C 172.000 226.602,138.427 261.575,129.892 269.515 C 126.871 272.324,122.270 276.944,119.666 279.781 L 114.931 284.938 114.715 298.581 L 114.498 312.223 112.012 314.787 C 103.421 323.651,114.897 336.529,124.032 328.276 C 128.874 323.902,128.723 317.478,123.696 313.957 C 122.070 312.818,122.012 312.256,122.272 300.136 L 122.543 287.502 146.838 262.951 C 160.201 249.448,171.328 238.400,171.567 238.400 C 171.805 238.400,172.000 240.986,172.000 244.147 L 172.000 249.894 154.942 266.747 L 137.885 283.600 137.682 306.515 C 137.548 321.616,137.761 329.605,138.305 329.941 C 139.466 330.659,138.550 332.730,135.607 336.047 C 133.108 338.863,132.961 339.616,133.556 346.505 C 133.746 348.693,138.756 351.759,142.350 351.886 C 150.973 352.191,155.021 342.221,148.800 336.000 L 145.600 332.800 145.600 309.345 L 145.600 285.890 158.800 272.896 C 169.613 262.252,172.013 260.237,172.071 261.751 C 172.110 262.768,172.149 265.663,172.158 268.185 L 172.174 272.771 164.146 281.404 L 156.118 290.037 156.054 300.730 C 156.008 308.219,156.290 311.788,156.995 312.642 C 157.809 313.628,157.789 313.931,156.892 314.233 C 150.914 316.243,149.605 324.910,154.629 329.210 C 163.696 336.972,173.500 325.140,165.386 316.227 C 163.920 314.617,163.777 313.414,163.829 303.112 L 163.887 291.770 167.695 287.903 C 169.790 285.777,171.618 284.152,171.758 284.292 C 171.899 284.432,172.054 296.466,172.104 311.035 L 172.195 337.523 169.366 340.192 C 164.302 344.967,164.924 351.676,170.786 355.517 C 179.201 361.031,189.053 348.900,182.356 341.272 L 179.912 338.488 179.437 289.044 C 178.910 233.996,179.253 224.000,181.675 224.000 C 183.154 224.000,183.201 225.179,183.227 263.000 C 183.255 304.898,183.324 305.600,187.404 305.600 C 190.832 305.600,191.297 303.319,191.148 287.251 C 191.071 278.822,191.230 271.703,191.503 271.430 C 191.777 271.157,192.000 260.373,192.000 247.467 C 192.000 224.533,192.036 224.000,193.600 224.000 C 195.256 224.000,195.892 264.861,195.322 334.717 L 195.160 354.634 192.855 357.259 C 184.903 366.316,196.842 378.023,205.566 369.724 C 209.908 365.594,208.763 355.200,203.967 355.200 C 203.470 355.200,203.264 331.506,203.395 289.400 C 203.598 224.097,203.612 223.602,205.200 223.876 C 206.080 224.028,206.919 224.267,207.065 224.408 C 207.211 224.548,207.288 241.987,207.237 263.160 C 207.136 304.329,207.106 304.000,211.019 304.000 C 215.296 304.000,215.327 303.729,215.196 267.072 C 215.028 220.318,214.815 224.800,217.200 224.800 L 219.200 224.800 219.241 244.600 C 219.418 328.856,219.243 338.731,217.555 340.020 C 210.597 345.330,214.162 356.293,222.980 356.705 C 231.685 357.111,235.573 348.555,230.000 341.254 L 227.200 337.586 227.200 323.640 C 227.200 314.775,226.894 309.506,226.361 309.176 C 225.782 308.818,225.798 308.325,226.412 307.586 C 226.929 306.963,227.257 303.725,227.196 299.857 C 227.138 296.196,227.115 290.965,227.145 288.234 L 227.200 283.269 230.800 287.117 L 234.400 290.966 234.400 301.094 C 234.400 307.125,234.759 311.797,235.288 312.643 C 236.023 313.821,235.681 314.559,233.288 316.952 C 225.360 324.880,236.748 336.914,244.841 329.161 C 248.925 325.248,248.496 318.622,243.975 315.799 C 242.515 314.887,242.400 313.880,242.400 301.985 L 242.400 289.155 234.813 281.178 L 227.227 273.200 227.213 266.666 L 227.200 260.132 240.069 273.148 L 252.938 286.164 252.860 309.682 L 252.782 333.200 250.833 334.926 C 245.746 339.429,245.787 344.906,250.944 349.694 C 259.768 357.887,270.904 343.704,262.357 335.157 C 260.693 333.493,260.649 332.833,260.547 308.526 L 260.444 283.600 243.828 266.800 L 227.212 250.000 227.206 244.050 L 227.200 238.101 229.701 240.450 C 231.077 241.743,242.057 253.003,254.101 265.474 L 276.000 288.148 276.000 300.788 C 276.000 311.342,275.800 313.506,274.788 313.894 C 272.693 314.698,270.791 320.600,271.590 323.821 C 272.300 326.687,277.570 331.200,280.206 331.200 C 288.701 331.200,292.881 320.934,286.844 314.898 L 284.088 312.142 283.725 301.471 C 283.115 283.608,285.111 287.280,264.328 265.771 C 254.248 255.338,241.770 242.561,236.600 237.377 C 226.010 226.761,225.091 224.800,230.703 224.800 L 234.206 224.800 265.703 256.643 L 297.200 288.486 296.053 290.843 C 291.313 300.584,302.887 309.301,310.480 301.709 C 315.807 296.382,313.229 287.374,305.905 285.720 C 304.408 285.382,300.825 282.327,295.679 277.000 L 287.758 268.800 300.879 268.619 C 321.988 268.328,320.250 268.118,323.039 271.294 C 325.595 274.206,329.464 275.845,332.633 275.360 C 334.567 275.065,340.424 269.757,339.660 268.994 C 339.415 268.748,339.603 268.078,340.079 267.505 C 341.341 265.985,339.678 261.557,336.816 258.815 C 333.034 255.192,327.969 255.071,324.520 258.520 L 321.842 261.200 300.745 261.017 L 279.648 260.834 262.271 243.471 C 247.398 228.609,245.078 225.973,246.172 225.173 C 250.180 222.243,260.028 228.945,274.400 244.385 L 276.400 246.534 294.400 245.974 L 312.400 245.414 314.224 247.907 C 315.227 249.278,316.685 250.400,317.464 250.400 C 318.243 250.400,319.265 250.785,319.735 251.255 C 322.506 254.026,329.829 247.279,329.829 241.954 C 329.829 233.815,320.293 229.239,315.203 234.936 C 312.235 238.257,310.501 238.538,293.043 238.527 L 278.130 238.517 271.671 232.059 L 265.212 225.600 298.161 225.600 L 331.111 225.600 333.222 223.784 C 335.125 222.147,335.237 221.757,334.358 219.828 C 332.924 216.679,330.284 216.540,281.131 217.032 C 255.084 217.293,237.431 217.173,237.159 216.734 C 236.910 216.330,235.377 215.985,233.753 215.967 C 218.364 215.793,208.443 201.092,208.766 178.938 L 208.881 171.075 216.240 163.967 L 223.600 156.859 230.419 156.830 L 237.238 156.800 243.419 163.018 C 247.574 167.198,249.600 169.845,249.600 171.097 C 249.600 176.540,257.115 179.145,260.957 175.032 C 265.445 170.228,260.739 160.916,255.347 163.933 C 254.308 164.515,253.300 163.867,250.685 160.938 L 247.348 157.200 268.554 156.987 L 289.759 156.774 292.507 159.187 C 300.543 166.242,309.898 155.336,302.425 147.626 C 299.289 144.390,296.640 144.022,293.600 146.400 C 291.752 147.846,290.233 147.966,273.609 147.982 L 255.617 148.000 260.116 143.502 L 264.614 139.004 272.685 139.061 C 277.124 139.092,280.956 138.795,281.200 138.400 C 281.943 137.198,294.618 138.374,296.198 139.791 C 300.048 143.243,306.400 139.638,306.400 134.000 C 306.400 127.484,300.509 124.597,295.746 128.779 C 293.032 131.162,292.851 131.200,284.113 131.200 L 275.238 131.200 282.134 124.600 C 285.926 120.970,289.608 118.079,290.315 118.175 C 291.022 118.271,292.736 118.577,294.125 118.855 C 299.177 119.865,304.390 113.605,302.433 108.879 C 300.669 104.622,294.647 100.859,293.240 103.135 C 292.946 103.611,292.019 104.000,291.181 104.000 C 289.656 104.000,287.616 106.657,287.598 108.665 C 287.593 109.251,283.451 113.669,278.394 118.483 L 269.200 127.236 268.953 124.007 C 268.786 121.808,269.195 120.079,270.236 118.589 C 275.207 111.471,266.873 103.224,260.428 108.883 C 256.815 112.055,256.690 114.908,260.000 118.678 C 262.127 121.101,262.401 121.990,262.406 126.506 L 262.412 131.600 253.806 139.797 L 245.200 147.994 238.819 147.997 L 232.438 148.000 238.638 141.763 C 244.229 136.139,245.096 135.556,247.457 135.832 C 251.173 136.265,255.200 132.157,255.200 127.933 C 255.200 117.976,239.995 117.540,239.649 127.487 C 239.554 130.225,206.287 165.600,203.807 165.600 C 203.473 165.600,203.200 163.148,203.200 160.152 L 203.200 154.703 210.200 148.013 C 214.050 144.334,225.946 132.746,236.635 122.262 L 256.070 103.200 266.016 103.200 C 274.547 103.200,276.334 103.427,278.581 104.797 C 283.159 107.589,288.000 104.747,288.000 99.268 C 288.000 93.891,281.256 90.002,278.058 93.536 C 276.786 94.942,275.613 95.200,270.506 95.200 L 264.460 95.200 268.281 91.321 C 271.232 88.325,272.536 87.524,274.008 87.806 C 278.094 88.587,284.088 80.998,281.679 78.095 C 281.203 77.522,281.003 76.864,281.234 76.633 C 281.914 75.952,276.072 71.200,274.554 71.200 C 271.702 71.200,267.431 75.684,267.811 78.278 C 268.267 81.380,268.158 81.525,258.800 90.338 C 254.400 94.481,240.090 108.512,227.000 121.518 L 203.200 145.164 203.200 138.340 L 203.200 131.516 231.318 103.343 C 246.783 87.848,259.206 74.940,258.925 74.658 C 258.644 74.377,258.796 73.687,259.262 73.125 C 261.856 70.000,253.755 63.959,250.857 66.857 C 250.166 67.549,249.600 67.853,249.600 67.535 C 249.600 67.216,248.880 67.785,248.000 68.800 C 246.209 70.866,246.028 71.676,247.200 72.400 C 249.142 73.600,247.855 76.744,243.800 80.702 L 239.600 84.801 239.352 81.095 C 239.011 76.010,237.359 74.396,234.879 76.725 C 233.216 78.288,233.077 78.993,233.396 84.225 L 233.749 90.000 229.711 94.400 L 225.673 98.800 225.636 84.038 L 225.600 69.276 228.104 66.693 C 232.529 62.127,231.582 56.199,225.889 52.840 C 218.747 48.626,210.478 58.556,215.570 65.232 C 217.797 68.151,219.415 81.678,217.667 82.759 C 216.398 83.543,216.514 102.761,217.800 104.835 C 218.624 106.166,218.589 106.579,217.600 107.191 C 216.940 107.599,213.340 111.006,209.600 114.763 L 202.800 121.592 203.029 92.269 L 203.258 62.945 205.629 60.245 C 212.615 52.288,201.864 41.148,194.401 48.611 M201.860 53.925 C 202.610 55.878,199.509 58.086,198.572 56.266 C 198.156 55.460,197.978 54.350,198.175 53.800 C 198.662 52.441,201.326 52.531,201.860 53.925 M177.600 60.800 C 177.600 61.689,177.067 62.400,176.400 62.400 C 175.733 62.400,175.200 61.689,175.200 60.800 C 175.200 59.911,175.733 59.200,176.400 59.200 C 177.067 59.200,177.600 59.911,177.600 60.800 M224.212 59.678 C 225.107 60.574,223.834 62.400,222.314 62.400 C 221.333 62.400,220.800 61.837,220.800 60.800 C 220.800 59.275,223.064 58.530,224.212 59.678 M125.400 79.400 C 124.896 80.914,122.400 81.129,122.400 79.659 C 122.400 78.917,123.084 78.400,124.067 78.400 C 125.044 78.400,125.596 78.813,125.400 79.400 M276.000 79.600 C 276.000 80.260,275.481 80.800,274.847 80.800 C 273.511 80.800,272.608 79.658,273.355 78.912 C 274.311 77.955,276.000 78.395,276.000 79.600 M282.400 98.898 C 282.400 100.680,282.218 100.845,281.190 99.992 C 280.270 99.228,280.198 98.726,280.888 97.894 C 282.166 96.354,282.400 96.510,282.400 98.898 M105.370 110.702 C 105.208 111.196,104.293 111.715,103.337 111.856 C 101.474 112.130,101.354 111.971,102.052 110.154 C 102.579 108.780,105.826 109.316,105.370 110.702 M296.000 110.667 C 296.000 111.253,295.763 111.970,295.474 112.260 C 294.750 112.983,292.712 111.190,293.256 110.309 C 293.938 109.206,296.000 109.475,296.000 110.667 M134.079 114.022 C 133.980 114.694,133.652 115.234,133.350 115.222 C 133.047 115.210,132.440 115.200,132.000 115.200 C 131.560 115.200,131.200 114.660,131.200 114.000 C 131.200 113.340,131.888 112.800,132.729 112.800 C 133.646 112.800,134.187 113.290,134.079 114.022 M265.600 114.000 C 265.600 114.660,265.240 115.200,264.800 115.200 C 264.360 115.200,264.000 114.660,264.000 114.000 C 264.000 113.340,264.360 112.800,264.800 112.800 C 265.240 112.800,265.600 113.340,265.600 114.000 M248.659 127.466 C 248.830 128.350,248.382 128.800,247.329 128.800 C 245.888 128.800,245.740 128.341,246.339 125.733 C 246.527 124.913,248.441 126.342,248.659 127.466 M152.000 127.553 C 152.000 128.187,151.624 128.938,151.165 129.222 C 150.132 129.860,147.854 128.084,148.456 127.109 C 149.172 125.950,152.000 126.304,152.000 127.553 M102.400 153.153 C 102.400 154.823,100.740 155.593,99.923 154.302 C 98.838 152.590,99.063 152.000,100.800 152.000 C 101.680 152.000,102.400 152.519,102.400 153.153 M298.400 153.553 C 298.400 155.779,297.026 156.316,296.040 154.475 C 294.876 152.300,294.968 152.000,296.800 152.000 C 297.850 152.000,298.400 152.533,298.400 153.553 M78.744 240.542 C 79.348 242.116,77.354 244.437,76.077 243.647 C 75.595 243.349,75.200 242.227,75.200 241.153 C 75.200 238.850,77.915 238.382,78.744 240.542 M322.935 240.462 C 323.514 241.973,321.322 244.417,320.077 243.647 C 319.595 243.349,319.200 242.227,319.200 241.153 C 319.200 238.884,322.121 238.343,322.935 240.462 M68.562 264.717 C 69.341 265.963,69.237 266.480,67.985 267.614 C 66.049 269.366,64.000 268.617,64.000 266.158 C 64.000 262.876,66.851 261.976,68.562 264.717 M332.800 265.514 C 332.800 267.839,331.661 268.865,329.800 268.215 C 327.748 267.500,328.606 263.200,330.800 263.200 C 332.472 263.200,332.800 263.579,332.800 265.514 M95.600 295.200 C 95.600 297.831,91.651 298.612,90.997 296.111 C 90.481 294.136,91.881 292.667,93.991 292.969 C 95.112 293.130,95.600 293.806,95.600 295.200 M306.000 295.189 C 306.000 296.491,305.487 297.277,304.515 297.464 C 302.466 297.859,301.334 296.500,301.989 294.434 C 302.791 291.907,306.000 292.512,306.000 295.189 M120.000 321.600 C 120.000 323.627,119.689 324.000,118.000 324.000 C 116.040 324.000,115.075 321.192,116.533 319.733 C 118.040 318.227,120.000 319.282,120.000 321.600 M282.258 321.056 C 282.769 323.706,281.808 324.968,280.012 324.006 C 278.429 323.159,277.856 320.811,278.961 319.706 C 279.938 318.729,281.971 319.562,282.258 321.056 M161.600 322.800 C 161.600 324.267,161.173 324.800,160.000 324.800 C 158.827 324.800,158.400 324.267,158.400 322.800 C 158.400 321.333,158.827 320.800,160.000 320.800 C 161.173 320.800,161.600 321.333,161.600 322.800 M240.648 323.000 C 240.499 323.770,239.848 324.400,239.200 324.400 C 238.552 324.400,237.901 323.770,237.752 323.000 C 237.563 322.018,237.995 321.600,239.200 321.600 C 240.405 321.600,240.837 322.018,240.648 323.000 M143.879 340.708 C 145.691 341.856,144.615 344.374,142.193 344.653 C 140.341 344.867,140.000 344.608,140.000 342.986 C 140.000 340.075,141.495 339.197,143.879 340.708 M258.259 342.663 C 258.485 344.632,258.276 344.892,256.659 344.663 C 255.293 344.470,254.731 343.800,254.541 342.137 C 254.315 340.168,254.524 339.908,256.141 340.137 C 257.507 340.330,258.069 341.000,258.259 342.663 M176.335 345.286 C 178.528 346.127,177.937 349.600,175.600 349.600 C 174.500 349.600,173.555 349.240,173.500 348.800 C 173.445 348.360,173.343 347.550,173.273 347.000 C 173.204 346.450,173.519 345.736,173.973 345.412 C 174.986 344.692,174.812 344.701,176.335 345.286 M225.600 347.600 C 225.600 349.187,225.197 349.600,223.647 349.600 C 221.443 349.600,220.443 348.484,221.104 346.762 C 221.921 344.632,225.600 345.318,225.600 347.600 M201.600 363.257 C 201.600 364.075,200.895 365.121,200.034 365.582 C 197.769 366.794,195.888 363.445,197.976 361.918 C 199.729 360.637,201.600 361.328,201.600 363.257 " stroke="none" fill="#3998fc" fill-rule="evenodd"/></g></svg>