<svg version="1.0" preserveAspectRatio="xMidYMid meet" viewBox="0.384 30.719999360000003 191.61599999999999 129.791997296" zoomAndPan="magnify" xmlns:xlink="http://www.w3.org/1999/xlink" xmlns="http://www.w3.org/2000/svg" style="max-height: 500px" width="191.61599999999999" height="129.791997296"><defs><g/></defs><g fill-opacity="1" fill="#3998fc"><g transform="translate(2.71775, 143.50965)"><g><path d="M 102.734375 -76.625 L 98.53125 -73.375 C 98.40625 -73.25 98.21875 -73.1875 97.96875 -73.1875 C 97.84375 -73.1875 97.742188 -73.1875 97.671875 -73.1875 C 97.609375 -73.1875 97.578125 -73.1875 97.578125 -73.1875 C 97.578125 -73.1875 97.515625 -73.1875 97.390625 -73.1875 C 97.390625 -73.0625 97.328125 -73 97.203125 -73 C 97.453125 -72.738281 97.644531 -72.609375 97.78125 -72.609375 C 98.03125 -72.609375 98.15625 -72.484375 98.15625 -72.234375 C 98.03125 -72.234375 97.96875 -72.234375 97.96875 -72.234375 C 97.96875 -72.234375 97.90625 -72.234375 97.78125 -72.234375 C 97.644531 -72.234375 97.578125 -72.359375 97.578125 -72.609375 C 97.578125 -72.867188 97.453125 -73 97.203125 -73 C 96.691406 -73 96.375 -72.742188 96.25 -72.234375 C 96.125 -71.722656 95.929688 -71.34375 95.671875 -71.09375 C 95.804688 -70.96875 96 -70.90625 96.25 -70.90625 C 96.5 -70.90625 96.691406 -70.835938 96.828125 -70.703125 C 96.828125 -70.066406 96.757812 -69.75 96.625 -69.75 C 96.375 -69.75 95.992188 -69.5 95.484375 -69 L 95.296875 -69.1875 C 94.910156 -69.1875 94.59375 -69.125 94.34375 -69 C 94.09375 -68.863281 93.835938 -68.671875 93.578125 -68.421875 C 92.816406 -68.929688 92.242188 -69.25 91.859375 -69.375 C 91.359375 -69.5 91.109375 -70.257812 91.109375 -71.65625 C 91.109375 -72.925781 91.425781 -74.390625 92.0625 -76.046875 C 92.3125 -76.804688 92.59375 -77.597656 92.90625 -78.421875 C 93.226562 -79.253906 93.515625 -80.113281 93.765625 -81 C 94.023438 -81.894531 94.3125 -82.753906 94.625 -83.578125 C 94.945312 -84.398438 95.234375 -85.253906 95.484375 -86.140625 C 96.117188 -88.046875 96.4375 -89.765625 96.4375 -91.296875 C 96.4375 -95.109375 95.863281 -98.03125 94.71875 -100.0625 C 93.582031 -102.09375 90.976562 -103.804688 86.90625 -105.203125 C 86.78125 -105.203125 86.6875 -105.203125 86.625 -105.203125 C 86.5625 -105.203125 86.46875 -105.203125 86.34375 -105.203125 C 86.207031 -105.203125 86.109375 -105.203125 86.046875 -105.203125 C 85.984375 -105.203125 85.890625 -105.203125 85.765625 -105.203125 C 85.253906 -105.203125 84.679688 -105.015625 84.046875 -104.640625 C 83.285156 -104.128906 82.78125 -103.75 82.53125 -103.5 C 82.40625 -103.363281 82.242188 -103.203125 82.046875 -103.015625 C 81.859375 -102.828125 81.703125 -102.671875 81.578125 -102.546875 C 81.453125 -102.410156 81.390625 -102.34375 81.390625 -102.34375 C 81.390625 -102.34375 81.453125 -102.410156 81.578125 -102.546875 C 80.429688 -101.398438 79.476562 -100.632812 78.71875 -100.25 C 78.207031 -100 77.570312 -99.742188 76.8125 -99.484375 C 76.425781 -99.359375 75.976562 -99.171875 75.46875 -98.921875 C 75.21875 -98.796875 74.773438 -98.414062 74.140625 -97.78125 C 73.253906 -96.507812 72.238281 -95.679688 71.09375 -95.296875 C 69.945312 -94.910156 69.25 -94.59375 69 -94.34375 C 67.851562 -93.195312 66.644531 -91.484375 65.375 -89.203125 C 64.101562 -86.910156 63.46875 -85.765625 63.46875 -85.765625 C 61.8125 -83.734375 60.476562 -81.640625 59.46875 -79.484375 C 58.570312 -77.441406 57.046875 -75.34375 54.890625 -73.1875 C 54.128906 -71.664062 53.363281 -70.234375 52.59375 -68.890625 C 51.832031 -67.554688 51.132812 -66.257812 50.5 -65 C 49.226562 -62.582031 47.328125 -60.101562 44.796875 -57.5625 L 44.796875 -57.171875 C 44.796875 -56.410156 44.539062 -55.585938 44.03125 -54.703125 C 43.519531 -53.804688 42.882812 -52.976562 42.125 -52.21875 C 41.738281 -51.84375 41.382812 -51.460938 41.0625 -51.078125 C 40.75 -50.691406 40.46875 -50.375 40.21875 -50.125 C 39.957031 -49.875 39.734375 -49.648438 39.546875 -49.453125 C 39.359375 -49.265625 39.203125 -49.109375 39.078125 -48.984375 C 37.035156 -46.566406 35.828125 -44.660156 35.453125 -43.265625 C 35.066406 -41.742188 34.617188 -40.597656 34.109375 -39.828125 C 32.835938 -38.554688 31.695312 -37.035156 30.6875 -35.265625 C 30.175781 -34.367188 29.726562 -33.507812 29.34375 -32.6875 C 28.96875 -31.863281 28.585938 -31.003906 28.203125 -30.109375 C 27.828125 -29.222656 27.476562 -28.398438 27.15625 -27.640625 C 26.84375 -26.878906 26.554688 -26.179688 26.296875 -25.546875 C 25.796875 -24.273438 25.226562 -23.320312 24.59375 -22.6875 C 24.59375 -22.550781 24.59375 -22.421875 24.59375 -22.296875 C 24.59375 -22.171875 24.59375 -21.984375 24.59375 -21.734375 C 24.59375 -21.597656 24.59375 -21.4375 24.59375 -21.25 C 24.59375 -21.0625 24.59375 -20.835938 24.59375 -20.578125 L 24.015625 -21.15625 L 24.015625 -20.78125 C 24.015625 -20.519531 23.953125 -20.328125 23.828125 -20.203125 C 23.703125 -20.078125 23.640625 -19.882812 23.640625 -19.625 C 23.640625 -19.5 23.640625 -19.4375 23.640625 -19.4375 C 23.640625 -19.4375 23.640625 -19.40625 23.640625 -19.34375 C 23.640625 -19.28125 23.640625 -19.1875 23.640625 -19.0625 C 23.640625 -18.039062 23.445312 -17.148438 23.0625 -16.390625 C 22.9375 -16.003906 22.804688 -15.617188 22.671875 -15.234375 C 22.546875 -14.859375 22.421875 -14.546875 22.296875 -14.296875 C 22.421875 -14.171875 22.484375 -13.789062 22.484375 -13.15625 C 22.359375 -12.519531 22.296875 -11.847656 22.296875 -11.140625 C 22.296875 -10.441406 22.296875 -9.78125 22.296875 -9.15625 C 22.296875 -8.519531 22.296875 -7.847656 22.296875 -7.140625 C 22.296875 -6.441406 22.296875 -5.773438 22.296875 -5.140625 C 22.296875 -3.867188 22.550781 -2.984375 23.0625 -2.484375 C 23.695312 -1.972656 24.269531 -1.207031 24.78125 -0.1875 C 24.90625 -0.1875 24.96875 -0.0625 24.96875 0.1875 C 24.207031 0.0625 23.632812 -0.441406 23.25 -1.328125 C 22.875 -2.097656 22.429688 -2.734375 21.921875 -3.234375 C 21.660156 -2.984375 21.53125 -2.796875 21.53125 -2.671875 C 21.53125 -2.546875 21.40625 -2.351562 21.15625 -2.09375 L 21.15625 -5.71875 C 21.03125 -5.59375 20.96875 -5.53125 20.96875 -5.53125 C 20.96875 -5.53125 20.90625 -5.46875 20.78125 -5.34375 C 20.78125 -5.71875 20.648438 -5.90625 20.390625 -5.90625 C 20.390625 -5.53125 20.265625 -5.085938 20.015625 -4.578125 C 19.753906 -4.066406 19.625 -3.8125 19.625 -3.8125 C 19.625 -1.78125 20.195312 0 21.34375 1.53125 C 22.613281 3.175781 23.820312 4.507812 24.96875 5.53125 C 26.488281 6.800781 27.820312 7.691406 28.96875 8.203125 C 29.601562 8.453125 30.140625 8.671875 30.578125 8.859375 C 31.023438 9.054688 31.316406 9.21875 31.453125 9.34375 C 33.734375 10.101562 36.144531 10.484375 38.6875 10.484375 C 41.863281 10.484375 44.722656 10.039062 47.265625 9.15625 C 48.660156 8.644531 49.960938 8.132812 51.171875 7.625 C 52.378906 7.113281 53.554688 6.601562 54.703125 6.09375 C 56.984375 4.957031 58.890625 3.816406 60.421875 2.671875 C 61.179688 2.035156 61.878906 1.523438 62.515625 1.140625 C 63.148438 0.765625 63.722656 0.445312 64.234375 0.1875 C 65.242188 -0.445312 66.320312 -1.175781 67.46875 -2 C 68.613281 -2.820312 69.820312 -3.679688 71.09375 -4.578125 C 73.632812 -6.484375 75.921875 -8.390625 77.953125 -10.296875 C 78.972656 -11.304688 79.925781 -12.191406 80.8125 -12.953125 C 81.695312 -13.722656 82.457031 -14.425781 83.09375 -15.0625 L 85.203125 -17.15625 C 85.203125 -18.164062 85.769531 -19.117188 86.90625 -20.015625 C 88.175781 -21.023438 89.257812 -21.53125 90.15625 -21.53125 C 90.914062 -21.28125 91.421875 -21.09375 91.671875 -20.96875 C 91.929688 -20.84375 92.441406 -20.648438 93.203125 -20.390625 C 92.304688 -19.878906 91.671875 -19.304688 91.296875 -18.671875 C 90.785156 -17.910156 90.46875 -17.34375 90.34375 -16.96875 L 89.765625 -15.625 C 89.640625 -15.25 89.257812 -15.0625 88.625 -15.0625 C 88.5 -15.0625 88.40625 -15.0625 88.34375 -15.0625 C 88.28125 -15.0625 88.179688 -15.0625 88.046875 -15.0625 C 87.921875 -15.0625 87.828125 -15.0625 87.765625 -15.0625 C 87.703125 -15.0625 87.609375 -15.0625 87.484375 -15.0625 C 86.847656 -15.0625 86.53125 -14.742188 86.53125 -14.109375 L 86.71875 -13.71875 C 86.84375 -13.84375 86.9375 -13.90625 87 -13.90625 C 87.0625 -13.90625 87.09375 -13.90625 87.09375 -13.90625 C 87.09375 -13.90625 87.125 -13.90625 87.1875 -13.90625 C 87.257812 -13.90625 87.359375 -13.972656 87.484375 -14.109375 L 87.671875 -13.90625 L 86.53125 -12.203125 L 86.34375 -12.390625 C 86.34375 -12.265625 86.34375 -12.203125 86.34375 -12.203125 C 86.34375 -12.203125 86.34375 -12.164062 86.34375 -12.09375 C 86.34375 -12.03125 86.34375 -11.9375 86.34375 -11.8125 C 86.082031 -11.8125 85.890625 -11.875 85.765625 -12 L 85.578125 -11.8125 C 85.578125 -11.6875 85.578125 -11.625 85.578125 -11.625 C 85.578125 -11.625 85.578125 -11.5625 85.578125 -11.4375 C 85.578125 -11.3125 85.382812 -10.929688 85 -10.296875 C 84.625 -9.785156 84.179688 -9.335938 83.671875 -8.953125 C 83.285156 -8.703125 82.84375 -8.320312 82.34375 -7.8125 C 81.957031 -7.4375 81.703125 -7.25 81.578125 -7.25 L 81.1875 -7.625 C 81.1875 -6.476562 80.804688 -5.523438 80.046875 -4.765625 C 79.285156 -4.003906 78.460938 -3.429688 77.578125 -3.046875 C 77.066406 -2.921875 76.617188 -2.796875 76.234375 -2.671875 C 75.859375 -2.546875 75.539062 -2.414062 75.28125 -2.28125 C 74.90625 -2.15625 74.84375 -2.15625 75.09375 -2.28125 C 74.96875 -2.15625 74.90625 -1.96875 74.90625 -1.71875 C 74.90625 -1.59375 74.84375 -1.53125 74.71875 -1.53125 L 74.71875 -1.140625 C 74.71875 -0.890625 74.082031 -0.382812 72.8125 0.375 C 72.175781 0.757812 71.503906 1.140625 70.796875 1.515625 C 70.097656 1.898438 69.429688 2.285156 68.796875 2.671875 C 68.160156 3.046875 67.523438 3.425781 66.890625 3.8125 C 66.265625 4.195312 65.632812 4.515625 65 4.765625 C 64.488281 5.015625 64.132812 5.203125 63.9375 5.328125 C 63.75 5.460938 63.71875 5.46875 63.84375 5.34375 C 62.957031 6.101562 62.195312 6.484375 61.5625 6.484375 C 61.4375 6.484375 61.34375 6.484375 61.28125 6.484375 C 61.21875 6.484375 61.1875 6.484375 61.1875 6.484375 C 61.1875 6.484375 61.148438 6.484375 61.078125 6.484375 C 61.015625 6.484375 60.921875 6.484375 60.796875 6.484375 C 60.546875 6.484375 60.421875 6.546875 60.421875 6.671875 C 60.421875 6.796875 60.289062 6.988281 60.03125 7.25 L 60.796875 6.859375 C 60.921875 6.984375 60.984375 7.175781 60.984375 7.4375 C 60.734375 7.4375 60.546875 7.5 60.421875 7.625 C 60.296875 7.75 60.195312 7.84375 60.125 7.90625 C 60.0625 7.96875 59.96875 8.066406 59.84375 8.203125 C 59.84375 7.691406 59.78125 7.4375 59.65625 7.4375 C 59.40625 7.4375 59.210938 7.5 59.078125 7.625 L 59.46875 8.390625 C 58.320312 8.390625 57.050781 8.644531 55.65625 9.15625 C 54.894531 9.40625 54.128906 9.6875 53.359375 10 C 52.597656 10.320312 51.773438 10.609375 50.890625 10.859375 C 49.234375 11.367188 47.707031 11.941406 46.3125 12.578125 C 45.164062 13.085938 44.210938 13.34375 43.453125 13.34375 L 43.640625 13.34375 C 43.898438 13.34375 44.09375 13.28125 44.21875 13.15625 L 42.6875 13.15625 C 42.820312 13.28125 42.890625 13.46875 42.890625 13.71875 L 42.5 13.71875 C 41.863281 13.71875 41.421875 13.78125 41.171875 13.90625 C 40.910156 14.039062 40.53125 14.109375 40.03125 14.109375 L 39.640625 14.109375 C 40.023438 13.472656 40.535156 13.15625 41.171875 13.15625 C 41.679688 13.15625 42.253906 12.835938 42.890625 12.203125 C 42.628906 12.066406 42.179688 12 41.546875 12 C 41.171875 12 40.789062 12 40.40625 12 C 40.019531 12 39.578125 12 39.078125 12 C 38.304688 12 37.539062 12.128906 36.78125 12.390625 C 36.78125 12.390625 37.160156 12.644531 37.921875 13.15625 C 38.554688 13.53125 38.75 13.71875 38.5 13.71875 C 38.113281 14.101562 37.351562 14.296875 36.21875 14.296875 C 35.707031 14.296875 35.195312 14.296875 34.6875 14.296875 C 34.175781 14.296875 33.734375 14.296875 33.359375 14.296875 C 32.972656 14.171875 32.398438 14.109375 31.640625 14.109375 C 31.128906 14.109375 30.875 13.976562 30.875 13.71875 C 30.75 13.84375 30.65625 13.9375 30.59375 14 C 30.53125 14.070312 30.429688 14.171875 30.296875 14.296875 C 30.171875 14.421875 29.984375 14.484375 29.734375 14.484375 C 29.472656 14.484375 29.28125 14.421875 29.15625 14.296875 C 29.03125 14.171875 28.84375 14.109375 28.59375 14.109375 C 28.71875 13.972656 28.78125 13.78125 28.78125 13.53125 C 28.65625 13.65625 28.335938 13.71875 27.828125 13.71875 C 27.578125 13.71875 27.195312 13.847656 26.6875 14.109375 C 26.8125 13.972656 26.875 13.65625 26.875 13.15625 C 26.875 13.019531 26.8125 12.953125 26.6875 12.953125 C 26.425781 12.953125 26.234375 13.019531 26.109375 13.15625 C 25.984375 13.28125 25.796875 13.34375 25.546875 13.34375 C 25.410156 13.34375 25.3125 13.34375 25.25 13.34375 C 25.1875 13.34375 25.09375 13.34375 24.96875 13.34375 C 24.84375 13.34375 24.75 13.34375 24.6875 13.34375 C 24.625 13.34375 24.523438 13.34375 24.390625 13.34375 C 24.265625 13.34375 24.171875 13.34375 24.109375 13.34375 C 24.046875 13.34375 23.953125 13.34375 23.828125 13.34375 C 23.703125 13.34375 23.601562 13.34375 23.53125 13.34375 C 23.46875 13.34375 23.375 13.34375 23.25 13.34375 C 23.125 13.34375 22.929688 13.3125 22.671875 13.25 C 22.421875 13.1875 22.039062 13.085938 21.53125 12.953125 C 20.644531 12.703125 19.882812 12.320312 19.25 11.8125 C 19.125 11.9375 19.0625 12.128906 19.0625 12.390625 C 16.769531 11.753906 14.484375 10.800781 12.203125 9.53125 C 9.910156 8.132812 7.8125 6.421875 5.90625 4.390625 C 4.125 2.347656 2.535156 -0.00390625 1.140625 -2.671875 C -0.128906 -5.335938 -0.890625 -8.320312 -1.140625 -11.625 C -1.140625 -12.132812 -1.078125 -12.515625 -0.953125 -12.765625 L -0.578125 -13.90625 C -0.578125 -14.289062 -0.640625 -14.609375 -0.765625 -14.859375 C -0.890625 -15.117188 -0.953125 -15.4375 -0.953125 -15.8125 C -0.953125 -15.945312 -0.953125 -16.109375 -0.953125 -16.296875 C -0.953125 -16.484375 -0.953125 -16.640625 -0.953125 -16.765625 C -0.953125 -17.023438 -0.953125 -17.21875 -0.953125 -17.34375 C -0.953125 -17.46875 -0.953125 -17.59375 -0.953125 -17.71875 C -0.953125 -17.851562 -0.953125 -17.953125 -0.953125 -18.015625 C -0.953125 -18.078125 -0.953125 -18.171875 -0.953125 -18.296875 C -0.953125 -18.421875 -0.953125 -18.515625 -0.953125 -18.578125 C -0.953125 -18.640625 -0.953125 -18.738281 -0.953125 -18.875 C -0.828125 -19 -0.632812 -19.0625 -0.375 -19.0625 C -0.25 -19.0625 -0.1875 -19.125 -0.1875 -19.25 C -0.1875 -19.375 -0.1875 -19.46875 -0.1875 -19.53125 C -0.1875 -19.59375 -0.1875 -19.625 -0.1875 -19.625 C -0.1875 -19.625 -0.1875 -19.65625 -0.1875 -19.71875 C -0.1875 -19.789062 -0.1875 -19.890625 -0.1875 -20.015625 C -0.1875 -20.773438 0 -21.914062 0.375 -23.4375 C 0.632812 -24.207031 0.859375 -24.972656 1.046875 -25.734375 C 1.234375 -26.492188 1.394531 -27.253906 1.53125 -28.015625 C 1.78125 -28.773438 2 -29.503906 2.1875 -30.203125 C 2.382812 -30.898438 2.609375 -31.503906 2.859375 -32.015625 C 3.492188 -33.160156 3.9375 -33.734375 4.1875 -33.734375 L 3.8125 -34.5 C 4.0625 -34.75 4.1875 -34.9375 4.1875 -35.0625 C 4.1875 -35.320312 4.316406 -35.453125 4.578125 -35.453125 L 4.953125 -35.453125 C 5.078125 -35.578125 5.140625 -35.765625 5.140625 -36.015625 L 5.140625 -36.78125 C 5.015625 -36.65625 4.953125 -36.46875 4.953125 -36.21875 C 4.953125 -36.082031 4.828125 -36.015625 4.578125 -36.015625 C 4.578125 -36.523438 4.894531 -37.609375 5.53125 -39.265625 C 5.78125 -40.023438 6.09375 -40.785156 6.46875 -41.546875 C 6.851562 -42.304688 7.238281 -43.070312 7.625 -43.84375 C 8.007812 -44.601562 8.390625 -45.363281 8.765625 -46.125 C 9.148438 -46.882812 9.53125 -47.644531 9.90625 -48.40625 C 10.289062 -49.164062 10.640625 -49.832031 10.953125 -50.40625 C 11.273438 -50.976562 11.5 -51.394531 11.625 -51.65625 C 12.382812 -53.300781 13.082031 -54.726562 13.71875 -55.9375 C 14.351562 -57.144531 14.925781 -58.191406 15.4375 -59.078125 C 15.945312 -59.972656 16.421875 -60.800781 16.859375 -61.5625 C 17.304688 -62.320312 17.722656 -63.019531 18.109375 -63.65625 C 18.484375 -64.289062 18.894531 -64.988281 19.34375 -65.75 C 19.789062 -66.507812 20.269531 -67.273438 20.78125 -68.046875 C 21.28125 -68.804688 21.847656 -69.660156 22.484375 -70.609375 C 23.117188 -71.566406 23.882812 -72.679688 24.78125 -73.953125 C 25.289062 -74.960938 25.863281 -76.007812 26.5 -77.09375 C 27.132812 -78.175781 27.832031 -79.222656 28.59375 -80.234375 C 30.113281 -82.273438 31.765625 -84.3125 33.546875 -86.34375 C 34.429688 -87.351562 35.253906 -88.269531 36.015625 -89.09375 C 36.785156 -89.925781 37.550781 -90.660156 38.3125 -91.296875 C 39.957031 -92.691406 41.164062 -93.644531 41.9375 -94.15625 C 43.332031 -95.164062 44.472656 -96.304688 45.359375 -97.578125 C 46.378906 -98.984375 47.84375 -99.875 49.75 -100.25 C 50.507812 -100.507812 51.394531 -100.890625 52.40625 -101.390625 C 53.039062 -101.648438 53.644531 -101.9375 54.21875 -102.25 C 54.789062 -102.570312 55.332031 -102.859375 55.84375 -103.109375 C 56.476562 -103.367188 57.082031 -103.65625 57.65625 -103.96875 C 58.226562 -104.289062 58.769531 -104.578125 59.28125 -104.828125 C 60.289062 -105.335938 61.175781 -105.71875 61.9375 -105.96875 C 62.957031 -106.21875 63.972656 -106.535156 64.984375 -106.921875 C 66.003906 -107.304688 67.148438 -107.75 68.421875 -108.25 C 70.960938 -109.269531 73.25 -109.84375 75.28125 -109.96875 C 75.539062 -109.96875 75.734375 -109.90625 75.859375 -109.78125 C 76.109375 -109.65625 76.296875 -109.65625 76.421875 -109.78125 C 76.679688 -110.289062 77.253906 -110.609375 78.140625 -110.734375 C 78.648438 -110.859375 79.125 -110.953125 79.5625 -111.015625 C 80.007812 -111.078125 80.488281 -111.175781 81 -111.3125 C 81.507812 -111.4375 81.953125 -111.53125 82.328125 -111.59375 C 82.710938 -111.65625 83.035156 -111.6875 83.296875 -111.6875 C 83.546875 -111.6875 83.734375 -111.6875 83.859375 -111.6875 C 83.984375 -111.6875 83.984375 -111.6875 83.859375 -111.6875 C 84.367188 -111.6875 84.878906 -111.5625 85.390625 -111.3125 C 85.890625 -111.050781 86.269531 -110.921875 86.53125 -110.921875 C 86.90625 -110.921875 87.285156 -110.953125 87.671875 -111.015625 C 88.054688 -111.078125 88.4375 -111.175781 88.8125 -111.3125 C 89.195312 -111.4375 89.578125 -111.53125 89.953125 -111.59375 C 90.335938 -111.65625 90.722656 -111.6875 91.109375 -111.6875 C 92.878906 -111.6875 94.785156 -111.304688 96.828125 -110.546875 C 98.984375 -109.785156 100.890625 -108.832031 102.546875 -107.6875 C 104.441406 -106.414062 105.898438 -105.082031 106.921875 -103.6875 C 108.066406 -102.15625 108.640625 -100.566406 108.640625 -98.921875 C 108.640625 -98.796875 108.640625 -98.695312 108.640625 -98.625 C 108.640625 -98.5625 108.640625 -98.46875 108.640625 -98.34375 C 108.640625 -98.21875 108.640625 -98.125 108.640625 -98.0625 C 108.640625 -98 108.640625 -97.90625 108.640625 -97.78125 L 108.453125 -98.34375 C 108.453125 -98.46875 108.453125 -98.5625 108.453125 -98.625 C 108.453125 -98.695312 108.453125 -98.796875 108.453125 -98.921875 C 108.066406 -98.796875 107.875 -98.414062 107.875 -97.78125 C 107.875 -97.644531 108 -97.453125 108.25 -97.203125 C 108.507812 -96.953125 108.640625 -96.757812 108.640625 -96.625 C 108.128906 -95.988281 107.875 -95.289062 107.875 -94.53125 C 107.875 -94.40625 107.875 -94.3125 107.875 -94.25 C 107.875 -94.1875 107.875 -94.09375 107.875 -93.96875 C 107.875 -93.832031 107.875 -93.734375 107.875 -93.671875 C 107.875 -93.609375 107.875 -93.515625 107.875 -93.390625 C 107.75 -93.898438 107.554688 -94.15625 107.296875 -94.15625 C 107.296875 -92.757812 107.046875 -91.613281 106.546875 -90.71875 C 106.035156 -89.832031 105.78125 -88.878906 105.78125 -87.859375 C 105.78125 -87.609375 105.84375 -87.421875 105.96875 -87.296875 C 106.09375 -87.160156 106.15625 -86.96875 106.15625 -86.71875 C 106.15625 -86.082031 105.898438 -85.703125 105.390625 -85.578125 C 104.890625 -85.453125 104.640625 -85.070312 104.640625 -84.4375 C 104.640625 -83.925781 104.765625 -83.546875 105.015625 -83.296875 L 105.78125 -82.53125 L 105.203125 -82.53125 C 104.566406 -82.53125 104.25 -82.46875 104.25 -82.34375 C 104.25 -82.207031 104.25 -82.109375 104.25 -82.046875 C 104.25 -81.984375 104.25 -81.890625 104.25 -81.765625 L 103.875 -82.140625 C 103.625 -81.765625 103.398438 -81.382812 103.203125 -81 C 103.015625 -80.625 102.796875 -80.242188 102.546875 -79.859375 C 102.410156 -79.472656 102.21875 -79.085938 101.96875 -78.703125 C 101.71875 -78.328125 101.460938 -77.882812 101.203125 -77.375 C 101.328125 -77.25 101.644531 -77.1875 102.15625 -77.1875 C 102.539062 -77.1875 102.734375 -77 102.734375 -76.625 Z M 97.78125 -77.578125 L 97.578125 -77.1875 C 97.078125 -77.0625 96.695312 -77.0625 96.4375 -77.1875 C 96.3125 -77.445312 95.929688 -77.257812 95.296875 -76.625 C 95.421875 -76.488281 95.613281 -76.421875 95.875 -76.421875 C 96.125 -77.054688 96.441406 -77.25 96.828125 -77 C 97.203125 -76.75 97.519531 -76.941406 97.78125 -77.578125 Z M 98.34375 -73 L 98.53125 -74.90625 C 98.789062 -74.644531 98.921875 -74.453125 98.921875 -74.328125 C 98.921875 -74.203125 99.109375 -74.140625 99.484375 -74.140625 C 99.234375 -73.628906 99.046875 -73.1875 98.921875 -72.8125 C 98.796875 -72.300781 98.601562 -72.046875 98.34375 -72.046875 Z M 100.25 -75.09375 L 100.0625 -75.671875 C 99.9375 -75.796875 99.875 -75.984375 99.875 -76.234375 C 99.875 -76.492188 99.8125 -76.6875 99.6875 -76.8125 C 100.0625 -76.6875 100.25 -76.492188 100.25 -76.234375 C 100.25 -76.109375 100.25 -76.015625 100.25 -75.953125 C 100.25 -75.890625 100.25 -75.796875 100.25 -75.671875 C 100.25 -75.535156 100.25 -75.4375 100.25 -75.375 C 100.25 -75.3125 100.25 -75.21875 100.25 -75.09375 Z M 100.25 -75.09375"/></g></g></g><g fill-opacity="1" fill="#3998fc"><g transform="translate(91.342776, 143.50965)"><g><path d="M 46.703125 -90.71875 L 44.796875 -89.953125 C 44.660156 -90.085938 44.46875 -90.15625 44.21875 -90.15625 C 44.726562 -90.65625 45.488281 -91.734375 46.5 -93.390625 C 47.394531 -94.785156 47.84375 -95.863281 47.84375 -96.625 C 47.457031 -96.5 47.070312 -96.40625 46.6875 -96.34375 C 46.3125 -96.28125 45.929688 -96.1875 45.546875 -96.0625 C 45.171875 -95.9375 44.789062 -95.875 44.40625 -95.875 C 44.03125 -95.875 43.710938 -95.875 43.453125 -95.875 L 42.125 -95.875 C 41.488281 -95.875 40.851562 -95.679688 40.21875 -95.296875 L 39.828125 -95.484375 C 39.703125 -95.484375 39.640625 -95.421875 39.640625 -95.296875 L 38.5 -95.296875 C 37.613281 -95.296875 36.785156 -95.265625 36.015625 -95.203125 C 35.253906 -95.140625 34.554688 -95.046875 33.921875 -94.921875 C 33.285156 -94.785156 32.617188 -94.6875 31.921875 -94.625 C 31.222656 -94.5625 30.554688 -94.53125 29.921875 -94.53125 L 29.34375 -94.53125 C 29.21875 -94.53125 29.0625 -94.53125 28.875 -94.53125 C 28.6875 -94.53125 28.460938 -94.53125 28.203125 -94.53125 C 28.078125 -94.53125 27.921875 -94.53125 27.734375 -94.53125 C 27.546875 -94.53125 27.382812 -94.53125 27.25 -94.53125 C 27.125 -94.53125 27.03125 -94.53125 26.96875 -94.53125 C 26.90625 -94.53125 26.8125 -94.53125 26.6875 -94.53125 C 26.5625 -94.53125 26.460938 -94.53125 26.390625 -94.53125 C 26.328125 -94.53125 26.234375 -94.53125 26.109375 -94.53125 C 25.984375 -94.53125 25.789062 -94.53125 25.53125 -94.53125 C 25.28125 -94.53125 24.898438 -94.46875 24.390625 -94.34375 C 23.890625 -94.21875 23.414062 -94.125 22.96875 -94.0625 C 22.519531 -94 21.976562 -93.898438 21.34375 -93.765625 C 20.832031 -93.640625 20.320312 -93.546875 19.8125 -93.484375 C 19.3125 -93.421875 18.804688 -93.328125 18.296875 -93.203125 C 17.785156 -93.078125 17.335938 -93.015625 16.953125 -93.015625 C 16.578125 -93.015625 16.265625 -93.015625 16.015625 -93.015625 C 15.753906 -93.015625 15.460938 -93.015625 15.140625 -93.015625 C 14.828125 -93.015625 14.546875 -93.015625 14.296875 -93.015625 C 14.035156 -93.015625 13.742188 -93.015625 13.421875 -93.015625 C 13.109375 -93.015625 12.828125 -93.015625 12.578125 -93.015625 C 11.816406 -93.015625 11.242188 -92.945312 10.859375 -92.8125 C 10.484375 -92.6875 9.914062 -92.625 9.15625 -92.625 C 7.882812 -92.625 6.800781 -92.941406 5.90625 -93.578125 L 3.625 -95.484375 C 3.875 -96.242188 4 -96.753906 4 -97.015625 C 4 -97.390625 4.378906 -97.960938 5.140625 -98.734375 C 5.398438 -98.984375 5.65625 -99.109375 5.90625 -99.109375 C 6.164062 -99.109375 6.546875 -99.234375 7.046875 -99.484375 C 7.304688 -99.617188 7.59375 -99.71875 7.90625 -99.78125 C 8.226562 -99.84375 8.515625 -99.9375 8.765625 -100.0625 L 9.71875 -100.0625 C 11.375 -100.0625 13.15625 -100.253906 15.0625 -100.640625 C 15.5625 -100.765625 16.097656 -100.859375 16.671875 -100.921875 C 17.242188 -100.984375 17.785156 -101.078125 18.296875 -101.203125 L 19.4375 -101.203125 C 20.195312 -101.460938 22.296875 -101.65625 25.734375 -101.78125 C 27.515625 -101.90625 29.289062 -102.03125 31.0625 -102.15625 C 32.84375 -102.28125 34.6875 -102.410156 36.59375 -102.546875 L 46.890625 -103.5 C 49.929688 -103.75 51.453125 -103.9375 51.453125 -104.0625 C 51.710938 -104.320312 52 -104.609375 52.3125 -104.921875 C 52.632812 -105.234375 52.921875 -105.519531 53.171875 -105.78125 C 53.679688 -106.289062 53.9375 -107.050781 53.9375 -108.0625 L 55.265625 -109.40625 C 55.773438 -109.90625 56.347656 -110.15625 56.984375 -110.15625 C 59.015625 -110.15625 60.984375 -109.585938 62.890625 -108.453125 C 64.796875 -107.304688 65.816406 -106.671875 65.953125 -106.546875 L 66.328125 -106.15625 C 66.453125 -106.28125 66.515625 -106.472656 66.515625 -106.734375 C 66.515625 -106.984375 66.640625 -106.984375 66.890625 -106.734375 C 66.890625 -105.835938 67.59375 -104.882812 69 -103.875 C 69.632812 -103.363281 70.394531 -102.789062 71.28125 -102.15625 C 73.3125 -102.15625 75.1875 -102.0625 76.90625 -101.875 C 78.625 -101.6875 80.117188 -101.460938 81.390625 -101.203125 C 82.785156 -100.953125 83.894531 -100.726562 84.71875 -100.53125 C 85.539062 -100.34375 86.082031 -100.25 86.34375 -100.25 C 86.71875 -100.125 87.671875 -100.0625 89.203125 -100.0625 L 93.203125 -99.875 C 93.835938 -99.875 94.503906 -99.875 95.203125 -99.875 C 95.898438 -99.875 96.503906 -99.8125 97.015625 -99.6875 C 98.285156 -99.425781 99.046875 -99.171875 99.296875 -98.921875 C 99.296875 -98.410156 98.914062 -97.960938 98.15625 -97.578125 C 97.769531 -97.453125 97.382812 -97.296875 97 -97.109375 C 96.625 -96.921875 96.25 -96.757812 95.875 -96.625 C 95.488281 -96.5 95.101562 -96.40625 94.71875 -96.34375 C 94.34375 -96.28125 93.960938 -96.1875 93.578125 -96.0625 C 93.066406 -95.9375 92.8125 -95.875 92.8125 -95.875 C 92.3125 -95.875 91.804688 -95.835938 91.296875 -95.765625 C 90.785156 -95.703125 90.335938 -95.609375 89.953125 -95.484375 C 89.191406 -95.742188 88.8125 -95.875 88.8125 -95.875 C 88.6875 -95.875 88.523438 -95.875 88.328125 -95.875 C 88.140625 -95.875 87.984375 -95.875 87.859375 -95.875 C 87.734375 -95.875 87.640625 -95.875 87.578125 -95.875 C 87.515625 -95.875 87.421875 -95.875 87.296875 -95.875 L 86.90625 -95.875 C 86.019531 -95.875 84.816406 -95.679688 83.296875 -95.296875 C 82.523438 -95.171875 81.820312 -95.007812 81.1875 -94.8125 C 80.550781 -94.625 79.914062 -94.46875 79.28125 -94.34375 C 79.15625 -94.34375 79.09375 -94.34375 79.09375 -94.34375 C 79.09375 -94.34375 79.03125 -94.34375 78.90625 -94.34375 C 78.65625 -94.09375 78.335938 -93.96875 77.953125 -93.96875 C 77.566406 -93.96875 77.375 -93.648438 77.375 -93.015625 C 77.375 -92.878906 77.566406 -92.6875 77.953125 -92.4375 C 77.316406 -92.1875 77 -91.929688 77 -91.671875 C 77 -91.296875 77.316406 -91.109375 77.953125 -91.109375 C 77.828125 -91.109375 77.570312 -90.722656 77.1875 -89.953125 C 77.0625 -89.578125 76.867188 -89.195312 76.609375 -88.8125 C 76.359375 -88.4375 76.109375 -87.992188 75.859375 -87.484375 C 75.597656 -86.972656 75.375 -86.523438 75.1875 -86.140625 C 75 -85.765625 74.773438 -85.382812 74.515625 -85 L 73.953125 -83.859375 C 73.953125 -83.859375 73.695312 -83.476562 73.1875 -82.71875 C 73.0625 -82.46875 72.898438 -82.148438 72.703125 -81.765625 C 72.515625 -81.378906 72.296875 -81 72.046875 -80.625 C 71.921875 -80.238281 71.757812 -79.851562 71.5625 -79.46875 C 71.375 -79.09375 71.15625 -78.78125 70.90625 -78.53125 C 70.769531 -78.269531 70.640625 -78.007812 70.515625 -77.75 C 70.390625 -77.5 70.265625 -77.25 70.140625 -77 C 68.992188 -74.96875 68.039062 -72.867188 67.28125 -70.703125 C 66.519531 -68.546875 65.375 -66.707031 63.84375 -65.1875 L 63.84375 -64.796875 C 63.84375 -64.296875 63.460938 -63.28125 62.703125 -61.75 C 62.328125 -60.988281 62.007812 -60.320312 61.75 -59.75 C 61.5 -59.175781 61.3125 -58.703125 61.1875 -58.328125 C 60.550781 -56.921875 59.785156 -55.390625 58.890625 -53.734375 C 58.003906 -52.085938 57.050781 -50.3125 56.03125 -48.40625 C 54 -44.59375 52.472656 -41.164062 51.453125 -38.125 C 51.328125 -37.226562 50.945312 -36.460938 50.3125 -35.828125 C 49.800781 -34.941406 49.421875 -33.863281 49.171875 -32.59375 C 49.046875 -31.570312 48.472656 -30.363281 47.453125 -28.96875 C 47.578125 -28.84375 47.640625 -28.65625 47.640625 -28.40625 C 47.640625 -28.40625 47.515625 -28.019531 47.265625 -27.25 C 47.140625 -26.75 46.820312 -26.367188 46.3125 -26.109375 L 46.3125 -25.734375 C 46.3125 -24.835938 45.992188 -23.628906 45.359375 -22.109375 C 45.109375 -21.472656 44.789062 -20.804688 44.40625 -20.109375 C 44.03125 -19.410156 43.648438 -18.742188 43.265625 -18.109375 C 42.878906 -17.472656 42.492188 -16.867188 42.109375 -16.296875 C 41.734375 -15.722656 41.359375 -15.117188 40.984375 -14.484375 C 40.085938 -13.210938 39.578125 -12.257812 39.453125 -11.625 C 38.816406 -10.226562 38.242188 -8.957031 37.734375 -7.8125 C 37.222656 -6.664062 36.84375 -5.710938 36.59375 -4.953125 C 36.082031 -3.429688 35.703125 -2.289062 35.453125 -1.53125 L 35.0625 0 C 35.0625 0 34.9375 0.378906 34.6875 1.140625 C 34.4375 2.035156 34.210938 2.832031 34.015625 3.53125 C 33.828125 4.226562 33.609375 4.832031 33.359375 5.34375 C 33.222656 5.84375 33.09375 6.21875 32.96875 6.46875 C 32.84375 6.726562 32.71875 6.988281 32.59375 7.25 C 32.46875 7.625 32.273438 7.8125 32.015625 7.8125 L 31.640625 7.8125 C 31.640625 7.6875 31.640625 7.59375 31.640625 7.53125 C 31.640625 7.46875 31.640625 7.4375 31.640625 7.4375 C 31.640625 7.4375 31.640625 7.40625 31.640625 7.34375 C 31.640625 7.28125 31.640625 7.179688 31.640625 7.046875 C 31.640625 6.671875 31.765625 6.226562 32.015625 5.71875 C 32.273438 5.207031 32.40625 4.828125 32.40625 4.578125 C 32.269531 4.703125 32.078125 4.765625 31.828125 4.765625 C 31.703125 4.765625 31.640625 4.828125 31.640625 4.953125 L 31.453125 4.390625 L 31.25 3.8125 C 31 4.0625 30.8125 4.316406 30.6875 4.578125 C 30.5625 4.953125 30.367188 5.140625 30.109375 5.140625 C 29.984375 5.140625 29.921875 4.953125 29.921875 4.578125 C 29.921875 4.191406 29.726562 4 29.34375 4 C 28.96875 4 28.78125 4.253906 28.78125 4.765625 C 28.78125 5.398438 28.71875 5.84375 28.59375 6.09375 C 28.332031 6.09375 28.140625 6.03125 28.015625 5.90625 C 28.015625 6.539062 27.757812 6.921875 27.25 7.046875 C 26.875 7.179688 26.429688 7.375 25.921875 7.625 C 25.535156 7.113281 25.09375 6.859375 24.59375 6.859375 L 23.25 6.859375 C 23 6.859375 22.742188 6.921875 22.484375 7.046875 C 22.234375 7.179688 21.984375 7.25 21.734375 7.25 C 21.472656 7.113281 21.085938 6.984375 20.578125 6.859375 C 20.078125 6.734375 19.441406 6.609375 18.671875 6.484375 C 17.910156 6.222656 17.148438 6 16.390625 5.8125 C 15.628906 5.625 14.867188 5.398438 14.109375 5.140625 C 12.578125 4.503906 11.238281 3.742188 10.09375 2.859375 C 8.957031 1.835938 8.390625 0.691406 8.390625 -0.578125 C 8.390625 -1.335938 8.578125 -2.289062 8.953125 -3.4375 C 9.210938 -4.070312 9.46875 -4.707031 9.71875 -5.34375 C 9.96875 -5.976562 10.222656 -6.613281 10.484375 -7.25 L 12.390625 -11.25 C 12.640625 -11.882812 12.921875 -12.550781 13.234375 -13.25 C 13.554688 -13.945312 13.847656 -14.613281 14.109375 -15.25 C 14.609375 -16.519531 15.082031 -17.820312 15.53125 -19.15625 C 15.976562 -20.488281 16.390625 -21.789062 16.765625 -23.0625 C 17.535156 -25.851562 18.488281 -28.457031 19.625 -30.875 C 20.769531 -34.5625 22.109375 -38.179688 23.640625 -41.734375 C 24.398438 -43.515625 25.160156 -45.257812 25.921875 -46.96875 C 26.679688 -48.6875 27.441406 -50.3125 28.203125 -51.84375 C 28.960938 -53.363281 29.691406 -54.789062 30.390625 -56.125 C 31.097656 -57.457031 31.703125 -58.632812 32.203125 -59.65625 C 32.835938 -60.675781 33.3125 -61.535156 33.625 -62.234375 C 33.945312 -62.929688 34.175781 -63.40625 34.3125 -63.65625 C 35.582031 -66.320312 36.722656 -68.832031 37.734375 -71.1875 C 38.753906 -73.539062 39.707031 -75.734375 40.59375 -77.765625 C 41.488281 -79.796875 42.410156 -81.796875 43.359375 -83.765625 C 44.316406 -85.734375 45.300781 -87.671875 46.3125 -89.578125 C 46.570312 -90.335938 46.703125 -90.71875 46.703125 -90.71875 Z M 46.703125 -90.71875"/></g></g></g></svg>