<svg xmlns="http://www.w3.org/2000/svg" xmlns:xlink="http://www.w3.org/1999/xlink" id="svg" version="1.1" width="400" height="400" viewBox="0, 0, 400,400 undefined"><g id="svgg"><path id="path0" d="M221.600 131.564 C 218.298 131.892,213.590 132.883,210.800 133.838 C 209.810 134.177,208.321 134.624,207.491 134.831 C 206.661 135.038,205.314 135.566,204.497 136.004 C 203.680 136.442,202.808 136.800,202.560 136.800 C 202.311 136.800,201.679 137.135,201.154 137.545 C 200.629 137.955,199.762 138.427,199.226 138.595 C 198.019 138.974,193.729 141.915,190.811 144.363 C 184.477 149.679,178.948 156.528,176.088 162.600 C 173.713 167.640,172.829 169.856,172.198 172.346 C 171.884 173.586,171.351 175.584,171.013 176.787 C 170.204 179.672,170.201 182.638,171.006 182.947 C 171.340 183.075,175.525 183.006,180.306 182.795 C 185.088 182.583,190.951 182.362,193.336 182.305 C 198.296 182.185,198.866 181.848,199.363 178.743 C 199.513 177.806,199.784 176.851,199.965 176.620 C 200.147 176.389,200.525 175.480,200.806 174.600 C 201.087 173.720,201.650 172.571,202.058 172.046 C 202.466 171.521,202.800 170.883,202.800 170.627 C 202.800 169.446,207.702 164.190,210.765 162.089 C 216.595 158.087,227.219 155.728,232.800 157.195 C 233.790 157.456,235.590 157.910,236.800 158.206 C 244.433 160.068,250.252 164.771,254.454 172.474 C 255.899 175.123,257.604 180.646,257.602 182.671 C 257.599 185.467,258.834 185.960,268.000 186.821 C 270.530 187.059,273.230 187.424,274.000 187.632 C 276.928 188.425,285.303 189.212,285.864 188.747 C 286.467 188.247,286.554 184.533,286.032 181.600 C 284.796 174.658,283.236 168.873,281.826 166.000 C 281.556 165.450,280.810 163.920,280.167 162.600 C 279.525 161.280,278.713 159.750,278.363 159.200 C 278.012 158.650,277.207 157.390,276.574 156.400 C 272.648 150.262,266.116 143.963,259.777 140.200 C 255.212 137.490,253.979 136.800,253.700 136.800 C 253.529 136.800,252.761 136.464,251.994 136.053 C 251.227 135.643,249.970 135.171,249.200 135.005 C 248.430 134.839,247.294 134.445,246.675 134.129 C 246.057 133.813,244.167 133.298,242.475 132.986 C 240.784 132.673,238.680 132.241,237.800 132.026 C 235.619 131.493,225.285 131.198,221.600 131.564 M161.100 133.632 C 160.445 134.013,160.400 135.621,160.400 158.381 L 160.400 182.722 161.575 183.131 C 163.149 183.680,163.439 183.243,163.783 179.800 C 163.936 178.260,164.415 175.740,164.846 174.200 C 166.921 166.792,167.390 165.300,168.050 164.000 C 168.442 163.230,169.408 161.250,170.197 159.600 C 173.546 152.597,179.597 144.915,186.135 139.368 C 188.230 137.590,189.070 135.089,188.003 133.804 C 187.394 133.069,162.341 132.909,161.100 133.632 M184.881 199.219 C 176.895 199.376,170.294 199.573,170.211 199.656 C 170.060 199.806,170.416 201.652,171.221 204.900 C 171.453 205.835,171.878 207.590,172.164 208.800 C 172.661 210.894,173.145 212.173,174.816 215.800 C 175.222 216.680,175.830 218.030,176.169 218.800 C 176.507 219.570,177.008 220.560,177.282 221.000 C 177.556 221.440,178.230 222.520,178.779 223.400 C 179.697 224.870,180.932 226.580,182.063 227.945 C 182.312 228.244,183.088 229.240,183.788 230.157 C 185.687 232.645,189.901 236.563,193.409 239.104 C 195.827 240.854,197.549 241.939,198.264 242.162 C 198.739 242.310,199.346 242.694,199.613 243.015 C 199.880 243.337,200.412 243.600,200.795 243.600 C 201.178 243.600,201.928 243.943,202.460 244.361 C 202.993 244.780,204.216 245.335,205.178 245.594 C 206.140 245.853,207.304 246.303,207.764 246.594 C 208.224 246.885,209.371 247.247,210.314 247.399 C 211.256 247.551,212.548 247.934,213.183 248.252 C 214.291 248.804,218.715 249.361,226.000 249.864 C 229.638 250.115,240.791 249.100,242.708 248.343 C 243.309 248.106,244.852 247.660,246.139 247.352 C 247.425 247.043,248.860 246.523,249.328 246.196 C 249.795 245.868,250.464 245.600,250.813 245.600 C 251.386 245.600,255.791 243.516,257.800 242.295 C 262.870 239.212,265.180 237.429,269.320 233.400 C 272.461 230.344,277.600 223.933,277.600 223.071 C 277.600 222.847,277.865 222.370,278.189 222.012 C 279.014 221.101,282.800 213.375,282.800 212.604 C 282.800 212.254,283.160 211.262,283.600 210.400 C 284.040 209.538,284.400 208.411,284.400 207.896 C 284.400 207.381,284.616 206.744,284.880 206.480 C 285.253 206.107,285.050 206.000,283.964 206.000 C 283.196 206.000,281.580 205.743,280.372 205.428 C 279.164 205.113,276.561 204.735,274.588 204.588 C 272.615 204.441,269.290 203.993,267.200 203.593 C 265.110 203.192,261.771 202.765,259.779 202.642 L 256.158 202.420 256.119 203.786 C 256.037 206.692,253.138 211.651,249.200 215.622 C 246.858 217.983,245.741 218.846,242.375 220.896 C 236.112 224.710,222.628 225.042,215.000 221.570 C 210.581 219.559,202.800 212.466,202.800 210.449 C 202.800 210.262,202.466 209.679,202.058 209.154 C 201.650 208.629,201.087 207.480,200.806 206.600 C 200.525 205.720,200.160 204.820,199.995 204.600 C 199.130 203.452,198.764 199.816,199.461 199.306 C 199.841 199.028,199.984 198.830,199.776 198.866 C 199.569 198.903,192.866 199.062,184.881 199.219 M202.700 199.089 C 203.415 199.178,204.585 199.178,205.300 199.089 C 206.015 199.001,205.430 198.928,204.000 198.928 C 202.570 198.928,201.985 199.001,202.700 199.089 M161.400 200.367 C 159.738 200.528,159.231 200.694,159.750 200.907 C 161.115 201.465,160.546 216.717,159.052 219.638 C 153.589 230.314,137.200 224.098,137.200 211.349 C 137.200 210.605,136.943 209.896,136.604 209.706 C 135.846 209.282,129.013 209.813,125.600 210.561 C 124.170 210.874,121.650 211.245,120.000 211.384 C 115.505 211.764,110.789 212.874,110.374 213.649 C 109.708 214.893,111.663 224.860,112.983 226.948 C 113.279 227.416,113.641 228.373,113.786 229.072 C 113.932 229.772,114.310 230.559,114.626 230.821 C 114.942 231.083,115.200 231.482,115.200 231.708 C 115.200 233.297,121.482 240.360,124.884 242.597 C 125.828 243.217,127.088 244.057,127.684 244.463 C 128.280 244.868,128.892 245.200,129.044 245.200 C 129.196 245.200,130.238 245.638,131.360 246.173 C 141.480 250.998,163.978 251.019,169.600 246.208 C 169.930 245.926,170.622 245.566,171.138 245.408 C 172.762 244.913,175.709 242.735,178.304 240.114 L 180.808 237.585 180.121 236.492 C 179.743 235.892,178.302 234.024,176.917 232.341 C 175.533 230.659,174.400 229.143,174.400 228.973 C 174.400 228.802,174.113 228.346,173.763 227.959 C 172.443 226.500,167.203 215.939,167.198 214.725 C 167.196 214.436,166.915 213.662,166.572 213.005 C 166.229 212.348,165.702 210.634,165.399 209.196 C 165.097 207.758,164.659 206.082,164.427 205.471 C 163.922 204.142,163.761 201.111,164.161 200.463 C 164.318 200.208,164.302 200.030,164.124 200.067 C 163.946 200.104,162.720 200.239,161.400 200.367 " stroke="none" fill="#efefef" fill-rule="evenodd"/><path id="path1" d="M0.000 200.000 L 0.000 400.000 200.000 400.000 L 400.000 400.000 400.000 200.000 L 400.000 0.000 200.000 0.000 L 0.000 0.000 0.000 200.000 M237.800 132.026 C 238.680 132.241,240.784 132.673,242.475 132.986 C 244.167 133.298,246.057 133.813,246.675 134.129 C 247.294 134.445,248.430 134.839,249.200 135.005 C 249.970 135.171,251.227 135.643,251.994 136.053 C 252.761 136.464,253.529 136.800,253.700 136.800 C 253.979 136.800,255.212 137.490,259.777 140.200 C 266.116 143.963,272.648 150.262,276.574 156.400 C 277.207 157.390,278.012 158.650,278.363 159.200 C 278.713 159.750,279.525 161.280,280.167 162.600 C 280.810 163.920,281.556 165.450,281.826 166.000 C 283.236 168.873,284.796 174.658,286.032 181.600 C 286.554 184.533,286.467 188.247,285.864 188.747 C 285.303 189.212,276.928 188.425,274.000 187.632 C 273.230 187.424,270.530 187.059,268.000 186.821 C 258.834 185.960,257.599 185.467,257.602 182.671 C 257.604 180.646,255.899 175.123,254.454 172.474 C 250.252 164.771,244.433 160.068,236.800 158.206 C 235.590 157.910,233.790 157.456,232.800 157.195 C 227.219 155.728,216.595 158.087,210.765 162.089 C 207.702 164.190,202.800 169.446,202.800 170.627 C 202.800 170.883,202.466 171.521,202.058 172.046 C 201.650 172.571,201.087 173.720,200.806 174.600 C 200.525 175.480,200.147 176.389,199.965 176.620 C 199.784 176.851,199.513 177.806,199.363 178.743 C 198.866 181.848,198.296 182.185,193.336 182.305 C 190.951 182.362,185.088 182.583,180.306 182.795 C 175.525 183.006,171.340 183.075,171.006 182.947 C 170.201 182.638,170.204 179.672,171.013 176.787 C 171.351 175.584,171.884 173.586,172.198 172.346 C 172.829 169.856,173.713 167.640,176.088 162.600 C 178.948 156.528,184.477 149.679,190.811 144.363 C 193.729 141.915,198.019 138.974,199.226 138.595 C 199.762 138.427,200.629 137.955,201.154 137.545 C 201.679 137.135,202.311 136.800,202.560 136.800 C 202.808 136.800,203.680 136.442,204.497 136.004 C 205.314 135.566,206.661 135.038,207.491 134.831 C 208.321 134.624,209.810 134.177,210.800 133.838 C 217.719 131.470,231.689 130.532,237.800 132.026 M188.003 133.804 C 189.070 135.089,188.230 137.590,186.135 139.368 C 179.597 144.915,173.546 152.597,170.197 159.600 C 169.408 161.250,168.442 163.230,168.050 164.000 C 167.390 165.300,166.921 166.792,164.846 174.200 C 164.415 175.740,163.936 178.260,163.783 179.800 C 163.439 183.243,163.149 183.680,161.575 183.131 L 160.400 182.722 160.400 158.381 C 160.400 135.621,160.445 134.013,161.100 133.632 C 162.341 132.909,187.394 133.069,188.003 133.804 M64.341 163.583 C 67.676 164.540,70.885 168.567,71.366 172.400 C 71.518 173.610,71.888 175.590,72.188 176.800 C 72.488 178.010,72.853 180.350,73.000 182.000 C 73.147 183.650,73.511 185.990,73.809 187.200 C 74.107 188.410,74.546 191.200,74.783 193.400 C 75.558 200.582,76.471 202.306,79.018 201.399 C 79.888 201.089,81.166 200.827,81.858 200.818 C 82.550 200.808,84.260 200.450,85.658 200.023 C 87.056 199.596,89.370 199.118,90.800 198.961 C 92.230 198.803,93.945 198.447,94.611 198.169 C 95.277 197.891,97.588 197.467,99.748 197.226 C 101.908 196.985,104.015 196.606,104.432 196.383 C 104.848 196.160,107.306 195.728,109.894 195.423 C 112.482 195.118,115.066 194.688,115.635 194.469 C 116.204 194.249,118.931 193.876,121.695 193.640 C 124.459 193.404,127.216 193.022,127.822 192.792 C 128.428 192.561,131.371 192.194,134.362 191.976 C 137.353 191.758,141.330 191.324,143.200 191.010 C 145.070 190.697,148.850 190.332,151.600 190.201 C 154.350 190.069,159.480 189.655,163.000 189.281 C 172.456 188.275,224.281 188.272,232.600 189.276 C 235.680 189.648,240.900 190.061,244.200 190.194 C 247.500 190.327,251.640 190.689,253.400 190.999 C 255.160 191.309,259.047 191.745,262.038 191.968 C 265.029 192.190,267.968 192.560,268.570 192.789 C 269.173 193.018,271.855 193.390,274.533 193.616 C 277.210 193.842,280.210 194.285,281.200 194.600 C 282.190 194.914,284.440 195.289,286.200 195.433 C 287.960 195.577,290.660 196.017,292.200 196.412 C 293.740 196.806,296.202 197.239,297.671 197.373 C 299.139 197.507,300.961 197.875,301.718 198.192 C 302.476 198.508,304.334 198.891,305.848 199.043 C 307.361 199.195,309.320 199.570,310.200 199.877 C 311.080 200.184,313.145 200.623,314.789 200.851 C 316.433 201.080,318.079 201.428,318.447 201.625 C 319.721 202.307,320.969 198.861,321.621 192.862 C 321.828 190.958,322.269 188.230,322.601 186.800 C 322.933 185.370,323.369 182.760,323.569 181.000 C 323.770 179.240,324.239 176.270,324.612 174.400 C 324.984 172.530,325.359 170.609,325.444 170.131 C 326.430 164.622,336.217 161.193,341.232 164.600 C 345.870 167.751,347.374 172.210,345.849 178.283 C 345.528 179.557,345.150 181.950,345.007 183.600 C 344.864 185.250,344.484 187.543,344.164 188.695 C 343.843 189.848,343.422 192.459,343.230 194.499 C 343.037 196.538,342.606 199.195,342.272 200.403 C 341.938 201.611,341.552 203.950,341.414 205.600 C 341.277 207.250,340.893 209.557,340.563 210.728 C 340.232 211.898,339.807 214.598,339.618 216.728 C 339.428 218.857,339.071 221.122,338.824 221.760 C 338.576 222.399,338.187 224.829,337.959 227.160 C 337.732 229.492,337.294 232.266,336.987 233.324 C 336.680 234.382,336.308 236.632,336.160 238.324 C 335.559 245.194,331.580 249.000,325.000 249.000 C 316.381 249.000,312.714 242.107,315.438 231.026 C 315.759 229.721,316.198 226.946,316.414 224.861 C 316.631 222.776,317.076 220.167,317.404 219.063 C 318.957 213.834,318.245 212.202,314.160 211.623 C 312.632 211.406,310.666 210.977,309.791 210.670 C 308.916 210.363,307.143 209.981,305.852 209.821 C 304.560 209.661,302.827 209.292,302.000 209.000 C 301.173 208.708,299.440 208.347,298.148 208.198 C 296.857 208.048,294.630 207.657,293.200 207.328 C 286.437 205.774,284.400 205.898,284.400 207.865 C 284.400 208.397,284.040 209.538,283.600 210.400 C 283.160 211.262,282.800 212.254,282.800 212.604 C 282.800 213.375,279.014 221.101,278.189 222.012 C 277.865 222.370,277.600 222.847,277.600 223.071 C 277.600 223.933,272.461 230.344,269.320 233.400 C 265.180 237.429,262.870 239.212,257.800 242.295 C 255.791 243.516,251.386 245.600,250.813 245.600 C 250.464 245.600,249.795 245.868,249.328 246.196 C 248.860 246.523,247.425 247.043,246.139 247.352 C 244.852 247.660,243.309 248.106,242.708 248.343 C 240.791 249.100,229.638 250.115,226.000 249.864 C 218.715 249.361,214.291 248.804,213.183 248.252 C 212.548 247.934,211.256 247.551,210.314 247.399 C 209.371 247.247,208.224 246.885,207.764 246.594 C 207.304 246.303,206.140 245.853,205.178 245.594 C 204.216 245.335,202.993 244.780,202.460 244.361 C 201.928 243.943,201.178 243.600,200.795 243.600 C 200.412 243.600,199.880 243.337,199.613 243.015 C 199.346 242.694,198.739 242.310,198.264 242.162 C 197.549 241.939,195.827 240.854,193.409 239.104 C 189.901 236.563,185.687 232.645,183.788 230.157 C 183.088 229.240,182.312 228.244,182.063 227.945 C 180.932 226.580,179.697 224.870,178.779 223.400 C 178.230 222.520,177.556 221.440,177.282 221.000 C 177.008 220.560,176.507 219.570,176.169 218.800 C 175.830 218.030,175.220 216.680,174.813 215.800 C 173.267 212.457,172.411 210.145,172.147 208.600 C 171.997 207.720,171.633 206.421,171.337 205.713 C 171.042 205.005,170.800 203.907,170.800 203.273 C 170.800 202.638,170.596 201.533,170.346 200.817 L 169.892 199.514 167.347 199.676 C 163.856 199.898,162.974 201.649,164.427 205.471 C 164.659 206.082,165.097 207.758,165.399 209.196 C 165.702 210.634,166.229 212.348,166.572 213.005 C 166.915 213.662,167.196 214.436,167.198 214.725 C 167.203 215.939,172.443 226.500,173.763 227.959 C 174.113 228.346,174.400 228.802,174.400 228.973 C 174.400 229.143,175.533 230.659,176.917 232.341 C 178.302 234.024,179.743 235.892,180.121 236.492 L 180.808 237.585 178.304 240.114 C 175.709 242.735,172.762 244.913,171.138 245.408 C 170.622 245.566,169.930 245.926,169.600 246.208 C 163.978 251.019,141.480 250.998,131.360 246.173 C 130.238 245.638,129.196 245.200,129.044 245.200 C 128.892 245.200,128.280 244.868,127.684 244.463 C 127.088 244.057,125.828 243.217,124.884 242.597 C 121.482 240.360,115.200 233.297,115.200 231.708 C 115.200 231.482,114.942 231.083,114.626 230.821 C 114.310 230.559,113.932 229.772,113.786 229.072 C 113.641 228.373,113.279 227.416,112.983 226.948 C 111.663 224.860,109.708 214.893,110.374 213.649 C 110.789 212.874,115.505 211.764,120.000 211.384 C 121.650 211.245,124.170 210.874,125.600 210.561 C 129.013 209.813,135.846 209.282,136.604 209.706 C 136.943 209.896,137.200 210.605,137.200 211.349 C 137.200 224.098,153.589 230.314,159.052 219.638 C 160.547 216.717,161.110 201.592,159.750 200.900 C 158.763 200.397,147.340 201.003,142.600 201.808 C 140.620 202.145,136.750 202.596,134.000 202.811 C 131.250 203.026,128.280 203.376,127.400 203.590 C 126.520 203.803,123.910 204.167,121.600 204.398 C 119.290 204.630,116.140 205.083,114.600 205.406 C 113.060 205.728,110.315 206.169,108.500 206.385 C 106.685 206.601,104.255 207.038,103.100 207.356 C 101.945 207.674,99.871 208.048,98.491 208.188 C 97.111 208.328,95.270 208.693,94.400 209.000 C 93.530 209.307,91.689 209.680,90.309 209.830 C 88.929 209.979,87.179 210.354,86.421 210.663 C 85.662 210.972,83.786 211.403,82.252 211.621 C 77.950 212.231,77.579 213.353,79.174 220.925 C 79.600 222.946,80.129 225.950,80.350 227.600 C 80.572 229.250,81.046 232.130,81.404 234.000 C 83.156 243.152,79.081 249.021,71.000 248.983 C 64.641 248.954,60.867 245.180,60.213 238.197 C 60.049 236.456,59.742 234.574,59.528 234.015 C 59.315 233.457,58.884 230.805,58.569 228.122 C 58.254 225.439,57.818 222.774,57.600 222.200 C 57.381 221.625,57.020 219.500,56.798 217.478 C 56.575 215.455,56.137 212.720,55.825 211.400 C 55.513 210.080,55.137 207.650,54.989 206.000 C 54.840 204.350,54.378 201.560,53.962 199.800 C 53.546 198.040,53.204 195.779,53.203 194.775 C 53.201 193.772,52.858 191.612,52.439 189.975 C 52.021 188.339,51.556 185.610,51.406 183.912 C 51.256 182.214,50.881 179.874,50.572 178.712 C 48.991 172.772,50.621 167.546,54.979 164.589 C 57.033 163.194,61.363 162.729,64.341 163.583 M43.131 178.861 C 45.227 180.570,46.094 182.340,46.426 185.584 C 46.595 187.243,46.937 189.127,47.184 189.770 C 47.431 190.414,47.814 192.843,48.034 195.169 C 48.255 197.494,48.689 200.297,49.000 201.398 C 49.311 202.499,49.752 205.141,49.981 207.270 C 50.210 209.398,50.585 211.634,50.814 212.238 C 51.044 212.842,51.401 215.109,51.607 217.277 C 51.814 219.444,52.246 222.159,52.567 223.309 C 55.104 232.386,54.003 238.973,49.674 240.627 C 43.701 242.908,39.901 238.705,38.980 228.800 C 38.827 227.150,38.450 224.832,38.142 223.649 C 37.835 222.465,37.412 219.843,37.202 217.822 C 36.993 215.801,36.559 213.079,36.238 211.774 C 35.917 210.468,35.530 208.050,35.378 206.400 C 35.226 204.750,34.945 202.987,34.753 202.481 C 34.562 201.976,34.144 199.456,33.825 196.881 C 33.506 194.307,32.964 191.127,32.622 189.816 C 31.053 183.802,32.351 180.101,36.800 177.904 C 38.037 177.293,41.930 177.882,43.131 178.861 M361.309 179.030 C 364.315 181.559,365.031 184.448,363.815 189.142 C 363.493 190.384,363.037 193.103,362.802 195.185 C 362.566 197.267,362.121 199.877,361.813 200.985 C 361.505 202.093,361.138 204.350,360.997 206.000 C 360.857 207.650,360.487 210.080,360.175 211.400 C 359.863 212.720,359.425 215.455,359.202 217.478 C 358.980 219.500,358.617 221.629,358.397 222.208 C 358.177 222.787,357.816 225.002,357.596 227.130 C 356.715 235.632,355.342 238.952,352.066 240.500 C 346.979 242.905,340.845 237.822,342.379 232.472 C 342.570 231.808,342.846 229.855,342.992 228.132 C 343.139 226.409,343.515 224.074,343.828 222.942 C 344.142 221.810,344.563 219.284,344.766 217.328 C 344.968 215.372,345.401 212.698,345.728 211.386 C 346.055 210.074,346.441 207.650,346.586 206.000 C 346.731 204.350,347.097 202.010,347.401 200.800 C 347.704 199.590,348.142 196.855,348.375 194.722 C 348.608 192.590,349.069 189.807,349.399 188.538 C 349.730 187.270,350.000 185.634,350.000 184.903 C 350.000 182.247,352.735 178.343,354.938 177.855 C 357.040 177.389,360.009 177.937,361.309 179.030 M26.052 194.100 C 27.496 195.295,28.076 196.954,28.444 200.939 C 28.650 203.172,29.078 205.810,29.395 206.800 C 29.712 207.790,30.088 210.040,30.229 211.800 C 30.370 213.560,30.827 216.339,31.243 217.975 C 31.659 219.612,32.000 221.702,32.000 222.621 C 32.000 223.539,32.178 225.227,32.395 226.371 C 32.947 229.287,32.202 231.051,30.264 231.414 C 26.972 232.032,25.567 229.691,24.811 222.324 C 24.586 220.126,24.144 217.399,23.830 216.264 C 23.516 215.129,23.137 212.772,22.989 211.028 C 22.840 209.283,22.463 207.033,22.152 206.028 C 21.503 203.936,20.963 196.997,21.334 195.520 C 21.744 193.887,24.713 192.993,26.052 194.100 M374.202 194.473 L 375.312 195.346 375.084 199.373 C 374.959 201.588,374.669 203.891,374.441 204.492 C 374.213 205.092,373.752 207.804,373.418 210.518 C 373.083 213.233,372.632 215.981,372.416 216.627 C 372.199 217.272,371.838 219.600,371.613 221.800 C 370.823 229.517,369.412 232.029,366.206 231.428 C 363.476 230.915,363.152 226.402,365.197 217.400 C 365.597 215.640,366.043 212.884,366.189 211.275 C 366.334 209.666,366.711 207.506,367.025 206.475 C 367.340 205.444,367.707 203.070,367.841 201.200 C 368.303 194.762,370.976 191.935,374.202 194.473 M199.366 199.376 C 198.760 199.819,199.210 203.557,199.995 204.600 C 200.160 204.820,200.525 205.720,200.806 206.600 C 201.087 207.480,201.650 208.629,202.058 209.154 C 202.466 209.679,202.800 210.262,202.800 210.449 C 202.800 212.466,210.581 219.559,215.000 221.570 C 222.628 225.042,236.112 224.710,242.375 220.896 C 245.741 218.846,246.858 217.983,249.200 215.622 C 252.141 212.656,253.481 210.775,254.916 207.600 C 257.384 202.137,256.936 201.763,247.200 201.154 C 243.790 200.940,238.300 200.486,235.000 200.146 C 231.700 199.805,224.410 199.450,218.800 199.358 C 213.190 199.266,206.657 199.134,204.282 199.065 C 201.591 198.986,199.738 199.103,199.366 199.376 " stroke="none" fill="#10101000" fill-rule="evenodd"/><path id="path2" d="M57.211 163.494 C 55.316 163.848,52.350 166.628,50.979 169.333 C 49.824 171.613,49.654 175.455,50.568 178.627 C 50.881 179.712,51.328 182.426,51.562 184.657 C 51.796 186.889,52.186 189.229,52.428 189.857 C 52.671 190.486,53.036 192.751,53.241 194.891 C 53.445 197.030,53.795 199.260,54.017 199.845 C 54.240 200.430,54.692 203.225,55.021 206.056 C 55.351 208.888,55.789 211.645,55.994 212.184 C 56.199 212.723,56.550 214.949,56.774 217.131 C 56.998 219.312,57.364 221.580,57.589 222.171 C 57.813 222.761,58.273 225.488,58.611 228.230 C 58.950 230.973,59.387 233.640,59.584 234.157 C 59.781 234.675,60.062 236.426,60.210 238.049 C 60.632 242.694,62.441 245.788,65.976 247.906 C 68.492 249.415,74.027 249.522,75.952 248.099 C 76.621 247.604,77.289 247.200,77.438 247.200 C 77.899 247.200,79.411 245.393,80.491 243.550 C 81.950 241.060,82.170 238.858,81.405 234.400 C 81.047 232.310,80.566 229.250,80.337 227.600 C 80.108 225.950,79.579 222.930,79.160 220.889 C 77.589 213.218,77.922 212.266,82.422 211.572 C 84.060 211.320,85.733 210.937,86.140 210.721 C 86.547 210.505,88.437 210.078,90.340 209.771 C 92.243 209.465,94.784 208.941,95.987 208.607 C 97.190 208.273,98.731 208.000,99.412 208.000 C 100.092 208.000,101.988 207.656,103.625 207.236 C 105.261 206.816,107.950 206.344,109.600 206.187 C 111.250 206.030,113.500 205.669,114.600 205.385 C 115.700 205.100,118.712 204.661,121.293 204.408 C 123.874 204.155,126.574 203.776,127.293 203.565 C 128.012 203.354,130.940 203.002,133.800 202.782 C 136.660 202.562,140.530 202.124,142.400 201.809 C 144.270 201.493,149.490 201.046,154.000 200.814 C 158.510 200.582,163.190 200.210,164.400 199.988 C 170.978 198.779,223.546 198.890,235.000 200.138 C 238.080 200.473,243.030 200.862,246.000 201.002 C 248.970 201.142,252.570 201.522,254.000 201.846 C 255.430 202.170,258.670 202.599,261.200 202.800 C 263.730 203.000,266.430 203.354,267.200 203.586 C 267.970 203.818,270.760 204.195,273.400 204.425 C 276.040 204.655,278.730 205.016,279.379 205.228 C 280.027 205.440,283.006 205.871,285.998 206.186 C 288.991 206.501,291.909 206.937,292.482 207.155 C 293.056 207.373,295.027 207.752,296.862 207.998 C 298.698 208.244,301.100 208.695,302.200 209.002 C 304.136 209.541,307.120 210.170,313.800 211.445 C 318.448 212.332,318.913 213.362,317.361 219.350 C 317.016 220.682,316.568 223.375,316.365 225.335 C 316.162 227.295,315.709 230.002,315.358 231.349 C 314.313 235.361,314.389 241.644,315.500 243.149 C 315.995 243.819,316.400 244.521,316.400 244.709 C 316.400 245.114,318.050 246.626,320.000 248.008 C 322.047 249.458,327.818 249.472,330.200 248.033 C 333.834 245.837,335.764 242.662,336.177 238.200 C 336.320 236.660,336.684 234.410,336.986 233.200 C 337.289 231.990,337.728 229.174,337.962 226.943 C 338.196 224.711,338.577 222.386,338.810 221.775 C 339.042 221.164,339.401 218.891,339.607 216.723 C 339.814 214.556,340.245 211.841,340.565 210.691 C 340.885 209.541,341.261 207.250,341.400 205.600 C 341.539 203.950,341.910 201.675,342.225 200.544 C 342.540 199.413,342.980 196.713,343.203 194.544 C 343.427 192.375,343.787 190.060,344.003 189.400 C 344.219 188.739,344.660 186.129,344.982 183.600 C 345.304 181.070,345.754 178.371,345.984 177.603 C 349.543 165.660,334.489 157.753,326.900 167.579 C 326.185 168.505,325.531 169.654,325.447 170.131 C 325.363 170.609,324.992 172.530,324.621 174.400 C 324.250 176.270,323.770 179.420,323.553 181.400 C 323.337 183.380,322.909 185.900,322.602 187.000 C 322.296 188.100,321.928 190.260,321.786 191.800 C 321.205 198.091,319.910 202.201,318.639 201.791 C 318.177 201.642,316.900 201.345,315.800 201.132 C 314.700 200.918,312.450 200.405,310.800 199.992 C 309.150 199.578,306.743 199.125,305.452 198.985 C 304.160 198.845,302.379 198.475,301.494 198.163 C 300.609 197.850,298.301 197.415,296.365 197.196 C 294.429 196.977,292.340 196.603,291.722 196.366 C 291.105 196.129,288.890 195.760,286.800 195.546 C 284.710 195.332,282.100 194.904,281.000 194.595 C 279.900 194.286,276.892 193.844,274.315 193.613 C 271.738 193.381,269.140 193.005,268.541 192.778 C 267.942 192.550,264.920 192.183,261.826 191.962 C 258.732 191.741,254.850 191.314,253.200 191.013 C 251.550 190.712,247.500 190.351,244.200 190.211 C 240.900 190.071,235.590 189.651,232.400 189.278 C 223.793 188.272,172.847 188.275,163.400 189.282 C 159.880 189.658,154.660 190.073,151.800 190.205 C 148.940 190.337,145.070 190.704,143.200 191.021 C 141.330 191.338,137.356 191.771,134.368 191.983 C 131.380 192.195,128.444 192.555,127.843 192.783 C 127.243 193.012,124.557 193.393,121.876 193.631 C 119.194 193.869,116.100 194.311,115.000 194.614 C 113.900 194.916,111.650 195.276,110.000 195.413 C 108.350 195.550,105.830 195.993,104.400 196.397 C 102.970 196.802,100.519 197.237,98.954 197.364 C 97.389 197.491,95.499 197.845,94.754 198.149 C 94.009 198.454,92.320 198.820,91.000 198.963 C 89.680 199.105,87.250 199.564,85.600 199.983 C 83.950 200.401,81.700 200.918,80.600 201.132 C 79.500 201.345,78.214 201.644,77.742 201.796 C 76.531 202.185,75.386 198.967,74.810 193.555 C 74.566 191.270,74.119 188.500,73.815 187.400 C 73.511 186.300,73.145 183.960,73.002 182.200 C 72.858 180.440,72.490 178.093,72.184 176.985 C 71.878 175.876,71.506 173.896,71.357 172.585 C 70.590 165.792,64.804 162.074,57.211 163.494 M36.904 177.861 C 32.976 178.709,30.820 185.393,32.799 190.596 C 33.005 191.139,33.448 193.804,33.782 196.518 C 34.117 199.233,34.566 201.981,34.780 202.627 C 34.994 203.272,35.355 205.541,35.583 207.670 C 35.811 209.798,36.182 212.026,36.408 212.621 C 36.634 213.216,37.004 215.507,37.231 217.713 C 37.457 219.919,37.891 222.679,38.196 223.847 C 38.500 225.015,38.864 227.283,39.005 228.886 C 39.875 238.782,44.255 243.331,50.063 240.368 C 54.285 238.214,54.919 233.319,52.370 222.545 C 51.946 220.755,51.600 218.404,51.600 217.321 C 51.600 216.237,51.259 214.012,50.842 212.375 C 50.425 210.739,49.967 208.050,49.824 206.400 C 49.681 204.750,49.312 202.500,49.004 201.400 C 48.695 200.300,48.257 197.600,48.030 195.400 C 47.802 193.200,47.425 190.770,47.193 190.000 C 46.960 189.230,46.608 187.234,46.410 185.565 C 45.722 179.761,42.017 176.758,36.904 177.861 M354.600 178.133 C 351.919 179.362,350.008 182.328,350.002 185.268 C 350.001 185.856,349.656 187.836,349.236 189.668 C 348.815 191.501,348.354 194.350,348.209 196.000 C 348.065 197.650,347.701 199.900,347.400 201.000 C 347.099 202.100,346.736 204.350,346.593 206.000 C 346.450 207.650,346.063 210.077,345.731 211.394 C 345.400 212.710,344.958 215.463,344.749 217.510 C 344.539 219.557,344.201 221.672,343.997 222.208 C 343.793 222.744,343.345 225.463,343.002 228.248 C 342.658 231.034,342.296 233.445,342.196 233.607 C 341.336 234.998,344.217 239.601,346.549 240.562 C 352.850 243.158,356.247 239.016,357.571 227.123 C 357.808 224.991,358.186 222.763,358.411 222.172 C 358.635 221.581,359.002 219.312,359.226 217.131 C 359.450 214.949,359.805 212.713,360.015 212.160 C 360.225 211.608,360.660 208.961,360.982 206.278 C 361.304 203.595,361.758 200.770,361.991 200.000 C 362.224 199.230,362.588 196.958,362.799 194.951 C 363.010 192.945,363.457 190.252,363.792 188.967 C 365.727 181.539,360.530 175.413,354.600 178.133 M22.123 194.641 C 20.940 195.824,20.958 202.137,22.156 206.028 C 22.465 207.033,22.843 209.283,22.995 211.028 C 23.148 212.772,23.532 215.100,23.849 216.200 C 24.166 217.300,24.614 220.055,24.845 222.322 C 25.601 229.760,26.957 232.035,30.264 231.414 C 31.762 231.133,33.064 229.067,32.624 227.671 C 32.507 227.302,32.229 225.225,32.005 223.056 C 31.780 220.887,31.343 218.187,31.032 217.056 C 30.721 215.925,30.356 213.560,30.220 211.800 C 30.083 210.040,29.714 207.790,29.400 206.800 C 29.085 205.810,28.643 203.151,28.417 200.891 C 27.757 194.275,25.114 191.650,22.123 194.641 M370.306 194.100 C 369.001 195.108,368.088 197.748,367.847 201.213 C 367.716 203.090,367.350 205.520,367.033 206.613 C 366.717 207.706,366.339 209.860,366.193 211.400 C 366.048 212.940,365.603 215.640,365.204 217.400 C 363.948 222.953,363.552 229.578,364.414 230.616 C 367.340 234.142,371.467 229.184,371.587 222.000 C 371.603 221.010,371.879 219.030,372.201 217.600 C 372.522 216.170,373.045 212.930,373.363 210.400 C 373.681 207.870,374.144 205.267,374.392 204.617 C 376.766 198.390,373.992 191.251,370.306 194.100 " stroke="none" fill="#efefef" fill-rule="evenodd"/></g></svg>