<svg xmlns="http://www.w3.org/2000/svg" y="0px" x="0px" viewBox="5.751351351351351 6.2176 20.583783783783783 20.563200000000002" data-name="Layer 1" style="max-height: 500px" width="20.583783783783783" height="20.563200000000002"><defs fill="#101010"><style>
      .cls-1 {
        stroke-width: 0px;
      }
    </style></defs><path d="m25.92,7.08c-.05-.12-.12-.23-.22-.33s-.21-.17-.33-.22c-.12-.05-.24-.07-.38-.08h-6c-.55,0-1,.45-1,1s.45,1,1,1h3.59l-7.29,7.29c-.39.39-.39,1.02,0,1.41.2.2.45.29.71.29s.51-.1.71-.29l7.29-7.29v3.59c0,.55.45,1,1,1s1-.45,1-1v-6h0c0-.14-.03-.26-.08-.38Z" class="cls-1" fill="#101010"/><path d="m25,16.46c-.55,0-1,.45-1,1v6c0,.55-.45,1-1,1h-14c-.55,0-1-.45-1-1v-14c0-.55.45-1,1-1h6c.55,0,1-.45,1-1s-.45-1-1-1h-6c-1.65,0-3,1.35-3,3v14c0,1.65,1.35,3,3,3h14c1.65,0,3-1.35,3-3v-6c0-.55-.45-1-1-1Z" class="cls-1" fill="#101010"/><text fill="#101010" font-family="Arbeit Regular, Helvetica, Arial-Unicode, Arial, Sans-serif" font-weight="bold" font-size="1.6" y="37.6" x="0.0">Created by Jessiey</text><text fill="#101010" font-family="Arbeit Regular, Helvetica, Arial-Unicode, Arial, Sans-serif" font-weight="bold" font-size="1.6" y="39.2" x="0.0">from Noun Project</text></svg>