<svg xmlns="http://www.w3.org/2000/svg" xmlns:xlink="http://www.w3.org/1999/xlink" width="240" zoomAndPan="magnify" viewBox="0 0 180 74.999997" height="100" preserveAspectRatio="xMidYMid meet" version="1.0"><defs><clipPath id="df89b4e27f"><path d="M 45 7.371094 L 135 7.371094 L 135 67.371094 L 45 67.371094 Z M 45 7.371094 " clip-rule="nonzero"/></clipPath><clipPath id="009a31fe51"><path d="M 0 23 L 180 23 L 180 67.371094 L 0 67.371094 Z M 0 23 " clip-rule="nonzero"/></clipPath></defs><g clip-path="url(#df89b4e27f)"><path fill="#efefef" d="M 101.757812 7.761719 C 100.09375 7.929688 97.71875 8.429688 96.3125 8.910156 C 95.8125 9.082031 95.0625 9.308594 94.640625 9.410156 C 94.222656 9.515625 93.542969 9.78125 93.132812 10.003906 C 92.71875 10.222656 92.28125 10.402344 92.15625 10.402344 C 92.03125 10.402344 91.710938 10.574219 91.445312 10.78125 C 91.179688 10.988281 90.746094 11.226562 90.472656 11.308594 C 89.863281 11.5 87.703125 12.984375 86.230469 14.21875 C 83.035156 16.898438 80.246094 20.355469 78.804688 23.417969 C 77.605469 25.960938 77.160156 27.078125 76.839844 28.332031 C 76.683594 28.957031 76.414062 29.964844 76.242188 30.574219 C 75.835938 32.027344 75.835938 33.523438 76.242188 33.679688 C 76.410156 33.746094 78.519531 33.710938 80.929688 33.601562 C 83.34375 33.496094 86.300781 33.382812 87.503906 33.355469 C 90.003906 33.296875 90.292969 33.125 90.542969 31.558594 C 90.617188 31.085938 90.753906 30.605469 90.847656 30.488281 C 90.9375 30.371094 91.128906 29.914062 91.269531 29.46875 C 91.414062 29.027344 91.695312 28.445312 91.902344 28.179688 C 92.109375 27.917969 92.277344 27.59375 92.277344 27.464844 C 92.277344 26.871094 94.75 24.21875 96.292969 23.160156 C 99.234375 21.140625 104.59375 19.949219 107.40625 20.691406 C 107.90625 20.824219 108.816406 21.050781 109.425781 21.199219 C 113.273438 22.140625 116.210938 24.511719 118.328125 28.398438 C 119.058594 29.734375 119.917969 32.519531 119.917969 33.539062 C 119.914062 34.949219 120.539062 35.199219 125.160156 35.632812 C 126.4375 35.753906 127.800781 35.9375 128.1875 36.042969 C 129.664062 36.441406 133.890625 36.839844 134.171875 36.605469 C 134.476562 36.351562 134.519531 34.480469 134.257812 33 C 133.632812 29.5 132.847656 26.582031 132.136719 25.132812 C 132 24.855469 131.621094 24.082031 131.296875 23.417969 C 130.976562 22.75 130.566406 21.980469 130.386719 21.703125 C 130.210938 21.425781 129.804688 20.789062 129.484375 20.289062 C 127.507812 17.195312 124.210938 14.015625 121.015625 12.117188 C 118.710938 10.753906 118.089844 10.402344 117.949219 10.402344 C 117.863281 10.402344 117.476562 10.234375 117.089844 10.027344 C 116.703125 9.820312 116.066406 9.582031 115.679688 9.5 C 115.292969 9.414062 114.71875 9.214844 114.40625 9.058594 C 114.09375 8.898438 113.140625 8.636719 112.289062 8.480469 C 111.433594 8.324219 110.375 8.105469 109.929688 7.996094 C 108.828125 7.726562 103.617188 7.578125 101.757812 7.761719 M 71.242188 8.804688 C 70.914062 9 70.890625 9.808594 70.890625 21.289062 L 70.890625 33.566406 L 71.484375 33.773438 C 72.277344 34.050781 72.425781 33.828125 72.597656 32.09375 C 72.675781 31.316406 72.917969 30.042969 73.132812 29.269531 C 74.179688 25.53125 74.417969 24.777344 74.75 24.125 C 74.945312 23.734375 75.433594 22.734375 75.832031 21.902344 C 77.523438 18.371094 80.574219 14.496094 83.871094 11.699219 C 84.929688 10.800781 85.351562 9.542969 84.8125 8.894531 C 84.507812 8.523438 71.871094 8.441406 71.242188 8.804688 M 83.238281 41.886719 C 79.210938 41.964844 75.882812 42.066406 75.839844 42.105469 C 75.761719 42.183594 75.941406 43.113281 76.347656 44.753906 C 76.464844 45.222656 76.679688 46.109375 76.824219 46.71875 C 77.074219 47.777344 77.320312 48.421875 78.164062 50.25 C 78.367188 50.695312 78.671875 51.375 78.84375 51.761719 C 79.015625 52.152344 79.269531 52.652344 79.40625 52.871094 C 79.542969 53.09375 79.882812 53.640625 80.160156 54.082031 C 80.625 54.824219 81.246094 55.6875 81.816406 56.375 C 81.941406 56.527344 82.335938 57.027344 82.6875 57.492188 C 83.644531 58.746094 85.769531 60.722656 87.539062 62.003906 C 88.757812 62.886719 89.628906 63.433594 89.988281 63.546875 C 90.226562 63.621094 90.535156 63.816406 90.667969 63.976562 C 90.804688 64.140625 91.070312 64.273438 91.265625 64.273438 C 91.457031 64.273438 91.835938 64.445312 92.105469 64.65625 C 92.375 64.867188 92.992188 65.148438 93.476562 65.277344 C 93.960938 65.40625 94.546875 65.636719 94.78125 65.78125 C 95.011719 65.929688 95.589844 66.109375 96.066406 66.1875 C 96.542969 66.265625 97.191406 66.457031 97.511719 66.617188 C 98.074219 66.894531 100.304688 67.175781 103.976562 67.429688 C 105.8125 67.558594 111.4375 67.046875 112.40625 66.664062 C 112.707031 66.542969 113.488281 66.320312 114.136719 66.164062 C 114.785156 66.007812 115.507812 65.746094 115.742188 65.582031 C 115.980469 65.414062 116.316406 65.28125 116.492188 65.28125 C 116.78125 65.28125 119.003906 64.230469 120.015625 63.613281 C 122.574219 62.058594 123.738281 61.160156 125.828125 59.125 C 127.410156 57.585938 130.003906 54.351562 130.003906 53.917969 C 130.003906 53.804688 130.136719 53.5625 130.300781 53.382812 C 130.71875 52.921875 132.625 49.027344 132.625 48.636719 C 132.625 48.460938 132.808594 47.960938 133.03125 47.527344 C 133.253906 47.089844 133.433594 46.523438 133.433594 46.261719 C 133.433594 46.003906 133.542969 45.683594 133.675781 45.550781 C 133.863281 45.359375 133.761719 45.308594 133.214844 45.308594 C 132.828125 45.308594 132.011719 45.175781 131.402344 45.019531 C 130.792969 44.859375 129.480469 44.667969 128.484375 44.59375 C 127.488281 44.519531 125.8125 44.292969 124.757812 44.09375 C 123.703125 43.890625 122.019531 43.675781 121.015625 43.613281 L 119.1875 43.5 L 119.167969 44.191406 C 119.128906 45.65625 117.664062 48.15625 115.679688 50.160156 C 114.5 51.351562 113.933594 51.785156 112.238281 52.820312 C 109.078125 54.742188 102.277344 54.910156 98.429688 53.160156 C 96.199219 52.144531 92.277344 48.566406 92.277344 47.550781 C 92.277344 47.457031 92.109375 47.164062 91.902344 46.898438 C 91.695312 46.632812 91.414062 46.054688 91.269531 45.609375 C 91.128906 45.164062 90.945312 44.710938 90.863281 44.601562 C 90.425781 44.023438 90.242188 42.1875 90.59375 41.929688 C 90.785156 41.789062 90.855469 41.691406 90.75 41.707031 C 90.648438 41.726562 87.265625 41.808594 83.238281 41.886719 M 92.226562 41.820312 C 92.585938 41.867188 93.175781 41.867188 93.539062 41.820312 C 93.898438 41.777344 93.601562 41.738281 92.882812 41.738281 C 92.160156 41.738281 91.867188 41.777344 92.226562 41.820312 M 71.394531 42.464844 C 70.558594 42.546875 70.300781 42.628906 70.5625 42.738281 C 71.25 43.019531 70.964844 50.710938 70.210938 52.1875 C 67.457031 57.570312 59.191406 54.433594 59.191406 48.003906 C 59.191406 47.628906 59.058594 47.273438 58.890625 47.175781 C 58.507812 46.960938 55.058594 47.230469 53.339844 47.609375 C 52.617188 47.765625 51.347656 47.953125 50.515625 48.023438 C 48.246094 48.214844 45.867188 48.773438 45.660156 49.164062 C 45.324219 49.792969 46.308594 54.820312 46.976562 55.871094 C 47.125 56.109375 47.308594 56.589844 47.378906 56.945312 C 47.453125 57.296875 47.644531 57.695312 47.804688 57.824219 C 47.964844 57.957031 48.09375 58.160156 48.09375 58.273438 C 48.09375 59.074219 51.261719 62.636719 52.976562 63.765625 C 53.453125 64.078125 54.089844 64.503906 54.390625 64.707031 C 54.691406 64.910156 55 65.078125 55.074219 65.078125 C 55.152344 65.078125 55.679688 65.300781 56.242188 65.570312 C 61.347656 68.003906 72.695312 68.011719 75.53125 65.585938 C 75.699219 65.445312 76.046875 65.261719 76.308594 65.183594 C 77.125 64.933594 78.613281 63.835938 79.921875 62.511719 L 81.183594 61.238281 L 80.835938 60.6875 C 80.648438 60.382812 79.921875 59.441406 79.222656 58.59375 C 78.523438 57.746094 77.953125 56.980469 77.953125 56.894531 C 77.953125 56.808594 77.808594 56.578125 77.632812 56.382812 C 76.964844 55.648438 74.324219 50.320312 74.320312 49.707031 C 74.320312 49.5625 74.175781 49.171875 74.003906 48.839844 C 73.832031 48.507812 73.566406 47.644531 73.414062 46.917969 C 73.261719 46.195312 73.039062 45.347656 72.921875 45.039062 C 72.667969 44.371094 72.585938 42.839844 72.789062 42.515625 C 72.867188 42.386719 72.859375 42.296875 72.769531 42.316406 C 72.679688 42.332031 72.0625 42.402344 71.394531 42.464844 " fill-opacity="1" fill-rule="evenodd"/></g><g clip-path="url(#009a31fe51)"><path fill="#efefef" d="M 18.84375 23.867188 C 17.890625 24.046875 16.394531 25.449219 15.703125 26.8125 C 15.121094 27.964844 15.035156 29.902344 15.496094 31.5 C 15.652344 32.046875 15.878906 33.417969 15.996094 34.542969 C 16.113281 35.667969 16.3125 36.847656 16.433594 37.164062 C 16.554688 37.480469 16.738281 38.625 16.84375 39.703125 C 16.945312 40.78125 17.121094 41.90625 17.234375 42.203125 C 17.347656 42.496094 17.574219 43.90625 17.742188 45.335938 C 17.90625 46.761719 18.128906 48.152344 18.230469 48.425781 C 18.335938 48.699219 18.511719 49.820312 18.625 50.921875 C 18.738281 52.019531 18.921875 53.164062 19.035156 53.464844 C 19.148438 53.761719 19.378906 55.136719 19.550781 56.519531 C 19.722656 57.902344 19.941406 59.246094 20.042969 59.507812 C 20.140625 59.769531 20.28125 60.652344 20.359375 61.472656 C 20.570312 63.816406 21.484375 65.375 23.265625 66.441406 C 24.535156 67.203125 27.328125 67.257812 28.296875 66.539062 C 28.636719 66.289062 28.972656 66.085938 29.046875 66.085938 C 29.28125 66.085938 30.042969 65.175781 30.585938 64.246094 C 31.324219 62.992188 31.433594 61.878906 31.046875 59.632812 C 30.867188 58.578125 30.625 57.035156 30.507812 56.203125 C 30.394531 55.371094 30.128906 53.847656 29.914062 52.816406 C 29.125 48.949219 29.292969 48.46875 31.5625 48.117188 C 32.386719 47.992188 33.230469 47.796875 33.4375 47.6875 C 33.640625 47.578125 34.59375 47.363281 35.554688 47.210938 C 36.515625 47.054688 37.796875 46.789062 38.402344 46.621094 C 39.007812 46.453125 39.785156 46.316406 40.128906 46.316406 C 40.472656 46.316406 41.429688 46.140625 42.253906 45.929688 C 43.082031 45.71875 44.4375 45.480469 45.269531 45.402344 C 46.101562 45.320312 47.234375 45.140625 47.789062 44.996094 C 48.34375 44.851562 49.863281 44.632812 51.167969 44.503906 C 52.46875 44.375 53.828125 44.183594 54.191406 44.078125 C 54.554688 43.972656 56.03125 43.792969 57.476562 43.683594 C 58.917969 43.574219 60.867188 43.351562 61.8125 43.191406 C 62.753906 43.035156 65.386719 42.808594 67.664062 42.691406 C 69.9375 42.574219 72.296875 42.386719 72.910156 42.273438 C 76.226562 41.664062 102.742188 41.722656 108.515625 42.351562 C 110.070312 42.519531 112.566406 42.714844 114.066406 42.785156 C 115.5625 42.855469 117.378906 43.046875 118.101562 43.210938 C 118.820312 43.375 120.457031 43.589844 121.730469 43.691406 C 123.007812 43.792969 124.371094 43.972656 124.757812 44.089844 C 125.148438 44.207031 126.554688 44.398438 127.886719 44.511719 C 129.21875 44.628906 130.574219 44.8125 130.902344 44.917969 C 131.226562 45.023438 132.730469 45.242188 134.238281 45.402344 C 135.75 45.558594 137.222656 45.78125 137.511719 45.890625 C 137.800781 46 138.792969 46.191406 139.71875 46.316406 C 140.644531 46.4375 141.855469 46.667969 142.410156 46.820312 C 143.386719 47.09375 144.894531 47.410156 148.261719 48.054688 C 150.605469 48.5 150.839844 49.019531 150.058594 52.039062 C 149.882812 52.710938 149.660156 54.070312 149.554688 55.058594 C 149.453125 56.046875 149.226562 57.414062 149.046875 58.09375 C 148.519531 60.117188 148.558594 63.285156 149.121094 64.042969 C 149.371094 64.382812 149.574219 64.734375 149.574219 64.832031 C 149.574219 65.035156 150.40625 65.796875 151.390625 66.496094 C 152.421875 67.226562 155.332031 67.234375 156.535156 66.507812 C 158.367188 65.398438 159.339844 63.796875 159.546875 61.546875 C 159.621094 60.769531 159.804688 59.636719 159.957031 59.027344 C 160.109375 58.414062 160.332031 56.996094 160.449219 55.871094 C 160.566406 54.746094 160.757812 53.570312 160.875 53.261719 C 160.992188 52.957031 161.175781 51.808594 161.277344 50.714844 C 161.382812 49.621094 161.601562 48.253906 161.761719 47.671875 C 161.921875 47.09375 162.113281 45.9375 162.183594 45.105469 C 162.253906 44.273438 162.441406 43.125 162.597656 42.554688 C 162.757812 41.984375 162.980469 40.621094 163.09375 39.527344 C 163.207031 38.433594 163.386719 37.265625 163.496094 36.933594 C 163.605469 36.601562 163.828125 35.285156 163.988281 34.007812 C 164.152344 32.734375 164.378906 31.371094 164.496094 30.984375 C 166.289062 24.960938 158.695312 20.972656 154.871094 25.929688 C 154.507812 26.394531 154.179688 26.976562 154.136719 27.214844 C 154.09375 27.457031 153.90625 28.425781 153.71875 29.367188 C 153.53125 30.3125 153.289062 31.902344 153.179688 32.898438 C 153.074219 33.898438 152.855469 35.167969 152.703125 35.722656 C 152.546875 36.277344 152.363281 37.367188 152.289062 38.144531 C 151.996094 41.316406 151.34375 43.390625 150.703125 43.183594 C 150.46875 43.109375 149.824219 42.960938 149.269531 42.851562 C 148.714844 42.742188 147.582031 42.484375 146.75 42.277344 C 145.917969 42.066406 144.703125 41.839844 144.050781 41.769531 C 143.398438 41.699219 142.5 41.511719 142.054688 41.355469 C 141.609375 41.195312 140.445312 40.976562 139.46875 40.867188 C 138.492188 40.757812 137.4375 40.566406 137.125 40.449219 C 136.816406 40.328125 135.699219 40.140625 134.644531 40.035156 C 133.589844 39.925781 132.273438 39.710938 131.71875 39.554688 C 131.164062 39.398438 129.648438 39.175781 128.347656 39.058594 C 127.046875 38.941406 125.738281 38.753906 125.433594 38.636719 C 125.132812 38.523438 123.609375 38.339844 122.046875 38.226562 C 120.488281 38.113281 118.527344 37.898438 117.695312 37.746094 C 116.863281 37.597656 114.820312 37.414062 113.15625 37.34375 C 111.492188 37.273438 108.816406 37.0625 107.207031 36.871094 C 102.863281 36.367188 77.167969 36.367188 72.402344 36.875 C 70.628906 37.066406 67.996094 37.273438 66.554688 37.339844 C 65.109375 37.40625 63.160156 37.59375 62.214844 37.753906 C 61.273438 37.910156 59.269531 38.128906 57.761719 38.238281 C 56.253906 38.34375 54.773438 38.527344 54.46875 38.640625 C 54.167969 38.757812 52.8125 38.949219 51.460938 39.070312 C 50.109375 39.1875 48.546875 39.410156 47.992188 39.5625 C 47.4375 39.714844 46.304688 39.898438 45.46875 39.96875 C 44.636719 40.035156 43.367188 40.257812 42.644531 40.464844 C 41.925781 40.667969 40.6875 40.886719 39.898438 40.953125 C 39.109375 41.015625 38.15625 41.195312 37.78125 41.347656 C 37.40625 41.5 36.554688 41.6875 35.886719 41.757812 C 35.222656 41.828125 33.996094 42.0625 33.164062 42.273438 C 32.332031 42.484375 31.195312 42.742188 30.640625 42.851562 C 30.085938 42.960938 29.4375 43.109375 29.199219 43.1875 C 28.589844 43.382812 28.011719 41.757812 27.722656 39.03125 C 27.597656 37.878906 27.375 36.480469 27.21875 35.925781 C 27.066406 35.371094 26.882812 34.191406 26.808594 33.304688 C 26.738281 32.414062 26.550781 31.230469 26.398438 30.671875 C 26.242188 30.113281 26.054688 29.113281 25.980469 28.453125 C 25.59375 25.027344 22.675781 23.152344 18.84375 23.867188 M 8.601562 31.113281 C 6.621094 31.542969 5.535156 34.914062 6.53125 37.539062 C 6.636719 37.8125 6.859375 39.15625 7.027344 40.523438 C 7.195312 41.894531 7.421875 43.28125 7.53125 43.605469 C 7.640625 43.929688 7.820312 45.074219 7.9375 46.148438 C 8.050781 47.222656 8.238281 48.347656 8.351562 48.644531 C 8.464844 48.945312 8.652344 50.101562 8.769531 51.214844 C 8.882812 52.328125 9.101562 53.71875 9.253906 54.308594 C 9.40625 54.898438 9.589844 56.042969 9.664062 56.851562 C 10.101562 61.839844 12.308594 64.136719 15.238281 62.640625 C 17.371094 61.554688 17.6875 59.085938 16.402344 53.652344 C 16.191406 52.75 16.015625 51.5625 16.015625 51.015625 C 16.015625 50.46875 15.84375 49.347656 15.632812 48.523438 C 15.421875 47.695312 15.191406 46.339844 15.121094 45.507812 C 15.046875 44.675781 14.859375 43.542969 14.707031 42.988281 C 14.550781 42.433594 14.328125 41.070312 14.214844 39.960938 C 14.097656 38.851562 13.910156 37.625 13.792969 37.238281 C 13.675781 36.847656 13.496094 35.84375 13.398438 35 C 13.050781 32.074219 11.179688 30.558594 8.601562 31.113281 M 168.839844 31.25 C 167.488281 31.871094 166.523438 33.367188 166.523438 34.851562 C 166.519531 35.148438 166.347656 36.144531 166.136719 37.070312 C 165.921875 37.992188 165.691406 39.429688 165.617188 40.261719 C 165.542969 41.09375 165.359375 42.230469 165.210938 42.785156 C 165.058594 43.339844 164.875 44.476562 164.800781 45.308594 C 164.730469 46.140625 164.535156 47.363281 164.367188 48.027344 C 164.199219 48.691406 163.976562 50.078125 163.871094 51.113281 C 163.765625 52.144531 163.59375 53.210938 163.492188 53.480469 C 163.390625 53.753906 163.164062 55.125 162.992188 56.527344 C 162.816406 57.933594 162.636719 59.148438 162.585938 59.230469 C 162.152344 59.933594 163.605469 62.253906 164.78125 62.738281 C 167.957031 64.046875 169.671875 61.960938 170.339844 55.960938 C 170.457031 54.886719 170.648438 53.761719 170.761719 53.464844 C 170.875 53.164062 171.0625 52.019531 171.175781 50.921875 C 171.285156 49.820312 171.464844 48.691406 171.570312 48.414062 C 171.679688 48.136719 171.898438 46.800781 172.058594 45.445312 C 172.222656 44.09375 172.449219 42.667969 172.570312 42.28125 C 172.6875 41.890625 172.871094 40.746094 172.976562 39.734375 C 173.082031 38.722656 173.308594 37.363281 173.476562 36.714844 C 174.453125 32.96875 171.832031 29.878906 168.839844 31.25 M 1.148438 39.578125 C 0.550781 40.175781 0.558594 43.359375 1.164062 45.320312 C 1.320312 45.828125 1.511719 46.960938 1.585938 47.84375 C 1.664062 48.722656 1.859375 49.898438 2.019531 50.453125 C 2.179688 51.007812 2.402344 52.394531 2.519531 53.539062 C 2.902344 57.289062 3.585938 58.4375 5.253906 58.125 C 6.007812 57.984375 6.664062 56.941406 6.445312 56.238281 C 6.386719 56.050781 6.246094 55.003906 6.132812 53.910156 C 6.019531 52.816406 5.796875 51.453125 5.640625 50.882812 C 5.484375 50.3125 5.300781 49.121094 5.230469 48.230469 C 5.164062 47.34375 4.976562 46.210938 4.816406 45.710938 C 4.660156 45.210938 4.4375 43.871094 4.320312 42.730469 C 3.988281 39.394531 2.65625 38.070312 1.148438 39.578125 M 176.761719 39.304688 C 176.105469 39.8125 175.644531 41.144531 175.523438 42.890625 C 175.457031 43.839844 175.269531 45.066406 175.113281 45.617188 C 174.953125 46.167969 174.761719 47.253906 174.6875 48.03125 C 174.613281 48.808594 174.390625 50.167969 174.1875 51.058594 C 173.554688 53.859375 173.355469 57.199219 173.789062 57.722656 C 175.265625 59.5 177.347656 57 177.410156 53.378906 C 177.417969 52.878906 177.554688 51.878906 177.71875 51.15625 C 177.878906 50.4375 178.144531 48.800781 178.304688 47.527344 C 178.464844 46.25 178.699219 44.9375 178.824219 44.609375 C 180.019531 41.46875 178.621094 37.867188 176.761719 39.304688 " fill-opacity="1" fill-rule="evenodd"/></g></svg>